<?xml version="1.0" encoding="utf-8"?>
<!-- Generator: Adobe Illustrator 19.2.0, SVG Export Plug-In . SVG Version: 6.00 Build 0)  -->
<svg version="1.1" id="Layer_1" xmlns="http://www.w3.org/2000/svg" xmlns:xlink="http://www.w3.org/1999/xlink" x="0px" y="0px"
	 viewBox="0 0 500 500" style="enable-background:new 0 0 500 500;" xml:space="preserve">
<style type="text/css">
	.st0{fill:#E15855;}
	.st1{display:none;opacity:0.191;fill:#010101;enable-background:new    ;}
	.st2{fill:#FFFFFF;}
	.st3{fill:#CA403A;}
</style>
<polyline class="st0" points="0,500 500,500 500,0 0,0 0,500 "/>
<polyline class="st1" points="374.2,162 172.2,239 146.2,324 344.2,506 507.2,506 507.2,304 374.2,162 "/>
<g>
	<polyline class="st2" points="249.5,99.6 108,149.4 130.3,334.8 249.7,400.4 369.7,334 392,148.5 249.5,99.6 	"/>
	<polyline class="st3" points="377.9,159.2 249.2,115.4 249.2,384.7 357.1,325.1 377.9,159.2 	"/>
	<polyline class="st0" points="123.9,160 143,325.9 249.2,384.7 249.2,115.4 123.9,160 	"/>
	<path class="st2" d="M281.3,250.4l-31.7-62.9l-26,61.8h25.8L281.3,250.4 M284.6,258.8l-35.4,16.6h-37.3l-17.5,43.9l-32.6,0.6
		l87.5-194.7L284.6,258.8z"/>
	<polyline class="st2" points="249.2,125.1 249.4,187.5 279,249.4 249.3,249.4 249.2,275.3 290.3,275.4 309.5,319.8 340.8,320.4 
		249.2,125.1 	"/>
</g>
</svg>
