<?xml version="1.0" encoding="utf-8"?>
<!-- Generator: Adobe Illustrator 19.1.0, SVG Export Plug-In . SVG Version: 6.00 Build 0)  -->
<svg version="1.1" id="Layer_1" xmlns="http://www.w3.org/2000/svg" xmlns:xlink="http://www.w3.org/1999/xlink" x="0px" y="0px"
	 viewBox="-36.7 0.7 500 500" style="enable-background:new -36.7 0.7 500 500;" xml:space="preserve">
<style type="text/css">
	.st0{fill:#FFCC2F;}
	.st1{fill:#543729;}
	.st2{fill:#00ACEE;}
	.st3{fill:#2BAF2B;}
	.st4{fill:#CECECE;}
	.st5{fill:#EF5734;}
	.st6{fill:#FFFFFF;}
</style>
<rect x="-36.7" y="0.7" class="st0" width="500" height="500"/>
<g>
	<path id="outline" class="st1" d="M375.5,247.3c-17.4-16.7-104.1-27.1-131.5-30.1c1.3-3.1,2.5-6.4,3.4-9.7
		c3.7-1.6,7.8-3.2,11.9-4.4c0.5,1.5,2.9,7.2,4.3,10c55.1,1.5,57.9-40.9,60.1-52.5c2.2-11.4,2.1-22.4,21-42.4
		c-28.1-8.2-68.6,12.7-82.2,43.8c-5.1-1.9-10.2-3.3-15.2-4.2c-3.6-14.6-22.5-55.3-71.9-55.3c-62.6,0-130.8,51.6-130.8,139.1
		c0,73.5,50.2,137.9,78.5,137.9c12.4,0,23-9.3,25.5-17.6c2.1,5.7,8.5,23.4,10.6,27.9c3.1,6.7,17.6,12.4,23.9,5.5
		c8.1,4.5,23,7.2,31.1-4.8c15.6,3.3,29.5-6,29.8-17.2c7.7-0.4,11.4-11.2,9.8-19.8c-1.2-6.3-14.4-29-19.6-36.8
		c10.2,8.3,36,10.6,39.1,0c16.4,12.9,42,6.1,44.1-4.4c20,5.2,42.9-6.2,39.1-20C388.6,290,384.5,255.9,375.5,247.3z"/>
	<g id="leaf">
		<path class="st2" d="M286.2,174.5c6.9-13.7,15.6-28.7,26.6-37.9c-12.1,4.9-24,19.4-31,34.9c-3.6-2.3-7.2-4.3-10.9-6.1
			c9.8-21,32.7-38.5,57.8-39.9c-16.9,15.3-10.9,47.1-24.7,63.9C299.9,185.4,290.8,177.7,286.2,174.5z M275.3,196.8
			c0-0.5,0.2-4.6,0.6-6.4c-1-0.2-7-1.4-10.1-1.3c-0.2,3.9,1.7,10.6,3.5,14.7c12.8-0.3,22.1-4.1,27.5-7.6c-4.6-2.2-12.5-4.1-18.6-5.2
			C277.6,192.2,275.9,195.8,275.3,196.8z"/>
	</g>
	<path id="wingtip" class="st3" d="M227.7,305.2C227.7,305.3,227.7,305.3,227.7,305.2c-1.6-3.4-3.3-7.7-5.4-13.2
		c8,11.7,33.1,5.6,31.8-4.8c12.3,9.3,37.6-1.5,31.9-14.5c12.3,5.7,26.4-5.8,23.2-10.8c21,4.1,41.1,8.1,47.4,9.7
		c-4.2,6.8-13.8,11.7-28.2,8.3c7.8,10.6-7.3,23.3-28.4,16.3c4.6,10.4-14.1,19.8-35.4,8.9C265,315.6,238.3,316.8,227.7,305.2z
		 M269.4,252.6c24.4,1.9,64.7,5.5,89.6,9c-1.6-8.1-5.9-10.4-19.4-14.1C325,249.1,288.1,252.7,269.4,252.6z"/>
	<path id="body" class="st0" d="M254.1,287.2c12.3,9.3,37.6-1.5,31.9-14.5c12.3,5.7,26.4-5.8,23.2-10.8
		c-24.8-4.8-50.9-9.6-56.8-10.4c3.6,0.2,9.5,0.6,16.9,1.2c18.7,0.1,55.6-3.5,70.2-5.1c-23.6-6-71.7-14.7-105-16.9
		c-1.5,2.3-4.4,6.1-9.3,10.1c-14.6,30.8-40.9,51.3-70.1,51.3c-8.5,0-18-1.4-28.7-4.8c-6.6,7.1-35,12.5-58,1.2
		c18.2,42.7,60.6,71.2,107.4,71.2c39.4,0,56.9-40.3,53.1-50.9c-0.9-2.6-4.6-11.2-6.7-16.7C230.3,303.7,255.5,297.7,254.1,287.2z"/>
	<path id="beak" class="st4" d="M230.2,206.2c3.5-1.9,15.5-9.2,27-11.9c-0.2-1.3-0.3-2.6-0.4-3.8c-7.5,1.8-21.7,7.9-29.8-0.5
		c17.1,5.2,25.7-4.6,38.3-4.6c7.5,0,18.2,2.1,26.7,5.4c-6.8-6.3-29.1-25.2-56.7-25.3C229.2,172.9,222.5,189.1,230.2,206.2z"/>
	<path id="head" class="st5" d="M126.5,287.2c10.7,3.4,20.2,4.8,28.7,4.8c29.2,0,55.5-20.5,70.1-51.3c-10.8,9-29.5,16.7-58.7,16.7
		c26-5.9,48.4-18.9,59.8-37.8c-8-12.7-16.7-41,5.3-63.2c-3.4-10.9-19.9-39.6-56.3-39.6C111.7,116.8,59,170.1,59,241.4
		c0,16.9,3.4,32.7,9.5,47C91.5,299.7,119.9,294.3,126.5,287.2z"/>
	<path id="eye_rim" class="st0" d="M145.6,178.5c0,16.2,13.2,29.4,29.4,29.4s29.4-13.2,29.4-29.4c0-16.2-13.2-29.4-29.4-29.4
		S145.6,162.3,145.6,178.5z"/>
	<path id="eye" class="st1" d="M157.4,178.5c0,9.7,7.9,17.6,17.6,17.6c9.7,0,17.6-7.9,17.6-17.6c0-9.7-7.9-17.6-17.6-17.6
		C165.3,161,157.4,168.8,157.4,178.5z"/>
	<ellipse id="pupil_highlight" class="st6" cx="175" cy="170.7" rx="10.3" ry="6.4"/>
</g>
</svg>
