<?xml version="1.0" encoding="utf-8"?>
<!-- Generator: Adobe Illustrator 19.1.0, SVG Export Plug-In . SVG Version: 6.00 Build 0)  -->
<svg version="1.1" id="Layer_1" xmlns:sketch="http://www.bohemiancoding.com/sketch/ns"
	 xmlns="http://www.w3.org/2000/svg" xmlns:xlink="http://www.w3.org/1999/xlink" x="0px" y="0px" viewBox="-194.5 146.5 500 500"
	 style="enable-background:new -194.5 146.5 500 500;" xml:space="preserve">
<style type="text/css">
	.st0{fill:#2BA6CB;}
	.st1{fill:#EDF7FA;}
	.st2{fill:#CDE9EE;}
	.st3{fill:#ABD8D7;}
	.st4{fill:#83BAC0;}
	.st5{fill:#545352;}
	.st6{fill:#6E7979;}
	.st7{fill:#FFFFFF;}
	.st8{fill:#474746;}
	.st9{fill:#A0D1DE;}
	.st10{fill:#B2DCE5;}
</style>
<rect x="-194.5" y="146.5" class="st0" width="500" height="500"/>
<title>Untitled</title>
<description>Created with Sketch (http://www.bohemiancoding.com/sketch)</description>
<g id="Page-1" sketch:type="MSPage">
	<g id="yeti-f5" transform="translate(-121.000000, -21.000000)" sketch:type="MSLayerGroup">
		<path id="Fill-4" sketch:type="MSShapeGroup" class="st1" d="M305.9,487.5c-4.2,0-8.8-2-12.1-17c-3.3-15-8.2-30.4-8.2-30.4
			c5.2,0,8.2-2.3,8.2-2.3c-3.6-1.6-11.4-7.2-16.7-14.1c-5.2-6.9-18.6-18-18.6-18v-22.2c0-15,9.6-26.8,9.6-26.8
			c-6.5,0-9.6,5.9-9.6,5.9V331c0-31.4,15.8-45.4,15.8-45.4c-4.9-0.3-8.2,2-8.2,2c2.3-23.2,9.4-30.1,9.4-30.1
			c-26.1-6.9-40.7,8.5-40.7,8.5c-2.9-14.1,8.6-22.2,8.6-22.2c-13.4-2.9-24.5,1-24.5,1c0-20.6,8.2-27.5,8.2-27.5
			c-40.8,0-64,30.7-64,30.7c-1.6-13.1,2-24.5,2-24.5c-39.5,16.7-50,53.6-50,53.6c-2.6-6.2-2.9-20.3-2.9-20.3S95.8,284.1,92.9,303
			c-2.9,19,2.6,73.4,2.6,73.4s-2.6-3.3-8.2-3.9c0,0,5.9,6.5,5.9,21.2c0,0-2.3-2-6.2-1c0,0,6.2,5.6,6.9,15c0,0-7.2,4.9-11.1,9.8
			c0,0-6.2,0.3-9.5,1.3c0,0,5.2,2.9,6.2,5.6c0,0-15.4,15.7-23.2,28.4c0,0,6.9-4.2,11.8-2.9c0,0-10.8,13.1-14.4,34.6
			c0,0,5.2-2.6,7.5-1.3c0,0-6.5,13.7-6.9,28.1l-7.2,4.2l5.6,3.9c0,0-4.2,17.6-5.2,27.8c0,0,3.3-3.3,5.9-4.2c0,0,3.6,8.5,8.5,15
			s16,12.1,22.5,12.1l12.3-0.5c-1.5,6.6-4.5,12.1-10.9,12.4l-0.7,1.1c-0.1,0-0.3,0-0.4,0c-0.1,1.9-4,2.3-5.1,3.6
			c-3.2,4-5.7,9.6-7.4,14.5c-1.2,3.6-0.6,3.6-1.5,7.4c-0.3,1.2-1.5,2.5-2,3.8c3.5-1.2,13.3-2,18.5-2.4l0.1,4.6c0,0,0.8,0.8,2.3,1.4
			c0,0,0.1,0,0.2,0c0.5,0,0.9,0.1,1.4,0.2c7.7-0.7,13.1,0.6,22.1-0.1c1.7-0.2,3.4-0.5,4.9-1.3c0.4-1.3,0.5-1.4,0.7-3
			c0-0.3,0-0.6,0.1-1c0.1,0,0.3,0,0.4-0.1c0.1,0,0.1,0,0.3,0c0,0,0.1,0,0.1,0c0.1,0,0.3,0,0.4,0c0.1,0,0.2,0,0.3,0
			c1.6-0.1,4.2-0.3,5.8-0.4c5.3,0,12.2,0.6,12.2,0.6c0.4-5.9,0.9-15.1,10.4-41.8l2.4-1.5c0,0,29.4,10.3,56.6-0.4
			c2.2,5.3,9.1,23.1,10.2,34.4c0.9,1.3,0.8,3,0.9,4.8c0,1.5,0.2,3,0.2,4.5c1-0.1,4.5-0.6,9-0.6c1.6,0.1,4.2,0.2,5.8,0.4
			c0.1,0,0.2,0,0.3,0c0.1,0,0.3,0,0.4,0c0,0,0.1,0,0.1,0c0.2,0,0.3,0,0.3,0c0.1,0,0.3,0,0.4,0.1c0.1,0.4,0.1,0.7,0.1,1
			c0.2,1.7,0.3,1.8,0.7,3c0.1,0.1,0.3,0.1,0.4,0.2c4.9-0.6,9.8-0.7,14.7-0.5c3.9,0.2,7.7,0.9,11.5,1.6c0,0,0,0.1,0,0.1
			c0.4,0,0.8,0.1,1.1,0.1c2,0.4,4.1,0.7,6.1,0.9c0-2.6,0-4.8,0-6.8c4.1,0.2,10,1,12.5,1.4c1,0.2,1.8,0.4,2.6,0.6
			c0.1,0,0.2,0.1,0.3,0.1c0,0,0,0,0,0c0.8,0.2,1.8,0.4,3,0.8c-0.2-2.2-0.2-2.2-0.5-4.9c-0.2-2.1-1.8-8.7-4.6-11.3
			c0,0,3.1,1.4,4.1,1.9c-3.1-4.2-4.6-10.2-14.3-14.3c0,0,1.8-0.8,3.4-1c-1.7-1-3-1.5-4.7-1.3c0.6-1.7,3.1-5.8,5.3-6.4
			c0,0-1.3-0.9-3.5-0.2c-0.8,0.4-1.6,0.9-2.3,1.4c-0.3,0.2-0.7,0-0.8-0.3c-0.7-2.5-1.1-5.1-1.5-7.6c19.6-0.7,22.3-10.7,22.3-10.7
			c1.6,1.3,1.6,4.2,1.6,4.2c8.5-11.1,7.5-22.2,7.5-22.2c2,0.3,3.6,1.6,3.6,1.6c1-17-4.2-46.1-4.2-46.1c2.6,1.3,4.2-0.3,4.2-0.3
			c-2.9-1.3-3.3-4.6-3.3-4.6C305.3,491.4,305.9,487.5,305.9,487.5"/>
		<path id="Fill-5" sketch:type="MSShapeGroup" class="st2" d="M119,610.8c0,0,0.8-8.3-1.9-14.2c0,0,5.1,0.3,6,13.8
			C123,610.4,119.4,610.8,119,610.8"/>
		<path id="Fill-6" sketch:type="MSShapeGroup" class="st2" d="M93.4,582.9l0-0.3C93.4,582.8,93.4,582.9,93.4,582.9"/>
		<path id="Fill-7" sketch:type="MSShapeGroup" class="st2" d="M98.1,610.1C98.1,610.1,98.1,610.1,98.1,610.1c0,0,0-0.1,0-0.2
			L98.1,610.1"/>
		<path id="Fill-8" sketch:type="MSShapeGroup" class="st2" d="M163.1,248c-1.6-13.1,2-24.5,2-24.5c-39.5,16.7-50,53.6-50,53.6
			c-2.6-6.2-2.9-20.3-2.9-20.3S95.8,284.1,92.9,303c-2.9,19,2.6,73.4,2.6,73.4s-2.6-3.3-8.2-3.9c0,0,5.9,6.5,5.9,21.2
			c0,0-2.3-2-6.2-1c0,0,6.2,5.6,6.9,15c0,0-7.2,4.9-11.1,9.8c0,0-6.2,0.3-9.5,1.3c0,0,5.2,2.9,6.2,5.6c0,0-15.4,15.7-23.2,28.4
			c0,0,6.9-4.2,11.8-2.9c0,0-10.8,13.1-14.4,34.6c0,0,5.2-2.6,7.5-1.3c0,0-6.5,13.7-6.9,28.1l-7.2,4.2l5.6,3.9
			c0,0-4.2,17.6-5.2,27.8c0,0,3.3-3.3,5.9-4.2c0,0,3.6,8.5,8.5,15s16,12.1,22.5,12.1l0.8-0.1c-0.4,2.3-0.8,4.5-1.4,6.7
			c-0.1,0.3-0.5,0.5-0.8,0.3c-0.8-0.5-1.5-1-2.3-1.4c-2.2-0.7-3.5,0.2-3.5,0.2c2.2,0.5,4.7,4.7,5.3,6.4c-1.7-0.1-3,0.3-4.7,1.3
			c1.6,0.2,3.4,1,3.4,1c-9.7,4.1-11.2,10.1-14.3,14.3c1-0.5,4.1-1.9,4.1-1.9c-2.9,2.7-4.4,9.2-4.6,11.3c-0.3,2.8-0.3,2.7-0.5,4.9
			c2.6-0.9,3.8-1,5.9-1.5c3.2-0.5,12.2-1.7,15.5-1.4l-0.5,6.4c0,0,0.1,0,0.2,0c1.7-0.5,3.1-0.4,4.6-0.6c0-1.8,0.1-3.5,0.3-5.2
			c-0.1-3,0.3-5.7,0.9-8.7c0-0.1,0-0.2,0.1-0.3c1.2-4.1,3.3-6.5,4.6-7.9c0.4-0.5,0.8-1,1.2-1.6c0.8-1.1,1.6-2.5,2.3-4.2
			c1.3-3.7,0.8-11.7-1.9-19.6c2.8,4.1,5.4,7.7,6.7,8.9l-0.1-10c0,0,5.2,5.2,9.9,9.2c2.3,2,5,4.5,7,5.5c0.1,0.1,0.3-0.9,0.4,0.6h0
			c0,0,0-0.3,0.1-0.3c2.7,1.5,5.4,2.7,7.9,4.3c0.3,0.2,0.6,0.3,0.8,0.4c1.2,0.8,3.3,1.7,5.1,2.7l1.8,20.9
			c1.6-21.9,14.1-42.9,14.1-42.9l-0.5-0.1c-3.9-1.2-32.2-11-48.9-45.9c-1.1-2.3,6.2,2.6,6.2,2.6c-6.9-16.7-9.5-43.5-9.5-43.5
			c2.3,2,4.6,2.3,4.6,2.3c-4.9-13.7-6.9-30.7-6.9-46.1C96.5,354.5,127,335.5,127,335.5c-5.2-2-10.8-1.8-10.8-1.8
			c6-14.5,26.1-34.8,26.1-34.8c-5.4,0.3-26.5,6-26.5,6c17.5-45.6,35.1-57.7,35.1-57.7c-1.3,10.9,2.9,22.5,2.9,22.5
			c37.9-46.9,68.4-44.7,68.4-44.7c2.3-4.7,4.8-7.9,4.8-7.9C186.3,217.2,163.1,248,163.1,248"/>
		<path id="Fill-9" sketch:type="MSShapeGroup" class="st2" d="M270.3,610.5c0,0-0.4-11.8-3.1-17.8c0,0,7,4.3,7,18
			C274.2,610.7,270.7,610.5,270.3,610.5"/>
		<path id="Fill-10" sketch:type="MSShapeGroup" class="st3" d="M87.5,549.6c4.6-45.3,5.9-134,5.9-134c-10,19.9-18.1,55.9-18.1,55.9
			l2,7.8l-4.4-2c-7.1,24.6-2.3,57.5-0.7,66.8C76.6,547.8,81.9,549,87.5,549.6"/>
		<path id="Fill-11" sketch:type="MSShapeGroup" class="st3" d="M78,548.6c1.4,7.3,2.9,14.2,4.6,21.4c1.2,0.2,2.6,0.1,2.6,0.1
			c1.1-4.4,1.3-11.2,2.2-19.5C84.1,550.3,81,549.7,78,548.6"/>
		<path id="Fill-12" sketch:type="MSShapeGroup" class="st2" d="M231.6,587.7c-0.3,0.1-0.5,0-0.6-0.2c-0.5,0.1-0.9,0.2-1.2,0.3
			c0,0,0,0,0,0c6.7-4.9,7.4-10.1,7.4-10.1c-4.5,2-9.2,2.8-11.5,3c15.6-13.5,18.2-38.6,18.2-38.6c-6.4,7.8-15.4,14.5-22.4,18.9l0,0
			c0,0-4.7,2.6-9,4.7c-0.2,0-0.4,0-0.5,0.2c-2.2,1-4.3,1.9-5.5,2.1c0,0,3.6,6.7,5.1,10.3l-0.3,0.2c0,0,5.2,12.3,7.1,24.3
			c0.2,2,0.4,3.8,0.5,5.1c0.1,1.7,0.2,3,0.2,3c6.9-1,16.7,0,16.7,0c0,1.1,0.6,3.8,0.7,4.3c3.3-0.4,6.6-0.6,9.9-0.7
			C246.1,602.8,245.6,583.6,231.6,587.7"/>
		<path id="Fill-13" sketch:type="MSShapeGroup" class="st4" d="M87.1,553.1c-10.8-1.8-20.7-14.3-20.7-14.3
			c7.9,8.4,17.7,9.5,17.7,9.5c1.3-9.6-6.6-31.5-6.6-31.5c5.9,7.3,9.1,15.8,10.8,22.7L87.1,553.1"/>
		<path id="Fill-14" sketch:type="MSShapeGroup" class="st3" d="M111.7,536.1c0,0,8.5,15,16,21.5c8.1,7,15.6,16.9,18.7,22.9
			c0,0,4-9.4,6.2-12.7C152.7,567.9,128.8,560.9,111.7,536.1"/>
		<path id="Fill-15" sketch:type="MSShapeGroup" class="st3" d="M222.8,565.4c1.2-1.7,2.5-3.2,3.8-4.8c2.1-2.6,4.5-5.1,6.3-7.9
			c-3.1,2.3-6.5,4.3-10,6.4c-10.1,6.9-17.2,8.8-17.2,8.8c2.2,3.3,6.2,12.7,6.2,12.7c1.9-3.6,5.4-8.7,9.7-13.7
			C222.1,566.4,222.5,565.9,222.8,565.4"/>
		<path id="Fill-16" sketch:type="MSShapeGroup" class="st5" d="M108.4,312.6c-0.9,0.1-3.9,0.1-3.9,0.1c-26.9,1.9-46.7-19-46.7-19
			S56,310,67.7,324.3c11.7,14.3,35.4,16.7,35.4,16.7c0.8,3.3-0.9,10.8-0.9,10.8s6.9-7.7,8.7-22.2C112.2,319.4,109,312.5,108.4,312.6
			"/>
		<path id="Fill-17" sketch:type="MSShapeGroup" class="st6" d="M108.4,312.6c-0.9,0.1-3.9,0.1-3.9,0.1c-26.9,1.9-46.7-19-46.7-19
			s12.3,35.6,53.4,32.8C111.2,326.5,112.3,319.9,108.4,312.6"/>
		<path id="Fill-18" sketch:type="MSShapeGroup" class="st5" d="M243,312.6c0.9,0.1,3.9,0.1,3.9,0.1c26.9,1.9,46.7-19,46.7-19
			s1.8,16.3-9.9,30.6C272,338.6,248.2,341,248.2,341c-0.8,3.3,0.9,10.8,0.9,10.8s-6.9-7.7-8.7-22.2
			C239.2,319.4,242.4,312.5,243,312.6"/>
		<path id="Fill-19" sketch:type="MSShapeGroup" class="st6" d="M243,312.6c0.9,0.1,3.9,0.1,3.9,0.1c26.9,1.9,46.7-19,46.7-19
			s-12.3,35.6-53.4,32.8C240.2,326.5,239.1,319.9,243,312.6"/>
		<path id="Fill-20" sketch:type="MSShapeGroup" class="st2" d="M94.4,433.2c0,0-19.4,69.6,0,114.2V433.2"/>
		<path id="Fill-21" sketch:type="MSShapeGroup" class="st2" d="M287.2,543.3c-9.6,7.3-19.5,7.8-19.5,7.8c-0.4-9.5,10-30.4,10-30.4
			c-2.4,1.4-4.3,3.1-5.8,4.9l-0.1-7l7.5-6.2l-6-4.9l7.7-30.9l-7.4,4.9c0,0-2.3-43.9-0.7-62.9c0,0-9.3-9.3-13.9-13.1
			c0,0,0.9,13.5,1.9,35.2c4.2,17.3,10.7,53.2,2.6,84.8c0.1,6.4,0.2,12.9,0.2,19.5c0,0,4,14,5.3,23.8c0,0,1.3,0.4,3.3,0l-0.1-15
			C282.2,550.8,287.2,543.3,287.2,543.3"/>
		<path id="Fill-22" sketch:type="MSShapeGroup" class="st2" d="M196.6,408.6c0,7.4,4.8,13.4,10.6,13.4c5.9,0,10.6-6,10.6-13.4
			c0-7.4-4.8-13.4-10.6-13.4C201.4,395.1,196.6,401.1,196.6,408.6"/>
		<path id="Fill-23" sketch:type="MSShapeGroup" class="st7" d="M196.9,405c0,7.3,4.7,13.2,10.5,13.2c5.8,0,10.5-5.9,10.5-13.2
			c0-7.3-4.7-13.2-10.5-13.2C201.6,391.7,196.9,397.7,196.9,405"/>
		<path id="Fill-24" sketch:type="MSShapeGroup" class="st8" d="M204.6,398.2c-0.1,0.3-0.1,0.7-0.1,1c0,1.9,1.2,3.4,2.7,3.4
			c1.3,0,2.4-1.2,2.7-2.8c0.9,1.1,1.4,2.6,1.4,4.3c0,3.5-2.2,6.2-5,6.2c-2.8,0-5-2.8-5-6.2C201.2,401.3,202.6,399,204.6,398.2"/>
		<path id="Fill-25" sketch:type="MSShapeGroup" class="st2" d="M145.6,408.6c0,7.4,4.8,13.4,10.6,13.4c5.9,0,10.6-6,10.6-13.4
			c0-7.4-4.8-13.4-10.6-13.4C150.4,395.1,145.6,401.1,145.6,408.6"/>
		<path id="Fill-26" sketch:type="MSShapeGroup" class="st7" d="M146,405c0,7.3,4.7,13.2,10.5,13.2c5.8,0,10.5-5.9,10.5-13.2
			c0-7.3-4.7-13.2-10.5-13.2C150.6,391.7,146,397.7,146,405"/>
		<path id="Fill-27" sketch:type="MSShapeGroup" class="st8" d="M155.6,398.2c-0.1,0.3-0.1,0.7-0.1,1c0,1.9,1.2,3.4,2.7,3.4
			c1.3,0,2.4-1.2,2.7-2.8c0.9,1.1,1.4,2.6,1.4,4.3c0,3.5-2.3,6.2-5,6.2s-5-2.8-5-6.2C152.2,401.3,153.6,399,155.6,398.2"/>
		<path id="Fill-28" sketch:type="MSShapeGroup" class="st5" d="M234.9,419.1c-0.7,2-2.9,2.5-9.4,3.8l-0.4,0.1
			c-6.3,1.2-17.6,1.1-23.8,0.2c-0.3,0-0.5-0.1-0.8-0.1c-5.7-1-6.4-1.7-8.2-4.7c-1.9-3.1-3.1-12.1-3.3-13.9l0-0.1
			c-0.2-1.9-0.3-2.8,2.1-3.9c3.3-1.5,17.7-3.5,23.6-3.8c4.7-0.2,14.6,0.4,19.1,1.1c0.7,0.1,1.2,0.2,1.6,0.3c0.5,0.1,2.4,1.1,2.3,3.1
			C237.5,403.9,235.8,416.4,234.9,419.1L234.9,419.1z M171.9,404.4L171.9,404.4c-0.2,1.9-1.4,10.9-3.3,14c-1.8,3-2.5,3.7-8.2,4.7
			c-0.2,0-0.5,0.1-0.8,0.1c-6.2,0.9-17.5,1.1-23.8-0.2l-0.4-0.1c-6.4-1.2-8.7-1.8-9.4-3.8c-0.9-2.7-2.6-15.2-2.8-17.9
			c-0.1-2,1.8-3,2.3-3.1c0.3-0.1,0.8-0.2,1.6-0.3c4.5-0.7,14.4-1.3,19.1-1.1c5.9,0.3,20.3,2.3,23.6,3.8
			C172.3,401.5,172.2,402.5,171.9,404.4L171.9,404.4z M243.2,392.4c-4.7-0.7-13-1.5-22.9-1c-12.9,0.7-24,2.5-30.6,3.5
			c-2,0.3-3.5,0.6-4.7,0.7l-1.3,0.2c-1.4,0.2-2.4,0.3-3.2,0.4c-0.8,0-1.8-0.2-3.2-0.4l-1.3-0.2c-1.2-0.2-2.7-0.4-4.7-0.7
			c-6.6-1.1-17.7-2.9-30.6-3.5c-9.9-0.5-18.2,0.3-22.9,1c0,0-5.1,0.6-9.4,2.5l0.8,5.5c0,0,4.6-1.1,9-1.7c0.8,7.7,2.4,17.7,2.4,17.7
			l0,0.3c0.1,0.5,0.2,1,0.4,1.5c0.9,3.9,1.8,6.2,5.5,7.6c3.6,1.4,12.1,2.6,20.7,3.1c3.2,0.2,6.8,0,10.5-0.6
			c5.4-0.8,10.4-2.3,12.3-3.7c2.7-2,4.2-7.1,5.2-10.5l0.3-1c0.3-1.1,0.6-2.4,0.9-3.5c0.4-1.7,0.8-3.4,1.2-4c0.1-0.1,0.4-0.5,1.6-0.6
			c0.4-0.1,0.8-0.1,1.2-0.1c0.5,0,0.9,0,1.2,0.1c1.2,0.2,1.5,0.5,1.6,0.6c0.4,0.6,0.8,2.3,1.2,4c0.3,1.2,0.6,2.4,0.9,3.5l0.3,1
			c1,3.4,2.4,8.5,5.2,10.5c1.9,1.4,6.8,2.9,12.3,3.7c3.7,0.5,7.3,0.7,10.5,0.6c8.6-0.4,17.1-1.7,20.7-3.1c3.7-1.4,4.6-3.7,5.5-7.6
			c0.1-0.5,0.2-1,0.4-1.5l0-0.3c0,0,1.6-10,2.4-17.7c4.5,0.6,9,1.7,9,1.7l0.8-5.5C248.2,393.1,243.2,392.4,243.2,392.4L243.2,392.4z
			"/>
		<path id="Fill-29" sketch:type="MSShapeGroup" class="st9" d="M159.5,378.5c0,0-11.8-5.6-18.6,4.8c0,0-0.7-10.4,8.8-11.6
			C159.3,370.6,159.5,378.5,159.5,378.5"/>
		<path id="Fill-30" sketch:type="MSShapeGroup" class="st9" d="M155.1,363.2c0,0-11-5.2-15.9,4.8c0,0-1.6-8.7,6.2-10.8
			C153.2,355.1,155.1,363.2,155.1,363.2"/>
		<path id="Fill-31" sketch:type="MSShapeGroup" class="st9" d="M201.8,384.9c0,0,9.2-4.4,14.4,3.7c0,0,0.5-8.1-6.9-9
			C202,378.8,201.8,384.9,201.8,384.9"/>
		<path id="Fill-32" sketch:type="MSShapeGroup" class="st9" d="M208.4,370.4c0,0,9.3-1.5,10.9,7c0,0,3.1-6.1-2.3-9.4
			C211.6,364.8,208.4,370.4,208.4,370.4"/>
		<path id="Fill-33" sketch:type="MSShapeGroup" class="st10" d="M158.7,460.9c0,0,6.5-4.4,10.3-5c0,0,0.8,8.2,4.6,12.3
			c0,0,8.2-7.4,16.3-7.9c0,0,2.1,4.5,5.5,6.2l0,0.1c1.2,0.8,2.7,1.5,4.2,1.9c0,0,4.7-2.8,6-8c0,0,0.4,10.9-6.4,16.8
			c0,0-5.2-2.5-8.9-6.6c-1.1-1.1-2.3-2.4-2.9-3.4c0,0-12,8.5-12.5,13.4c0,0-8.7-8.5-11.6-15c0,0-5.8,1.8-7.4,3c0,0-4.7-7.6-5.6-14.5
			C150.3,454.1,155.9,459.5,158.7,460.9"/>
		<path id="Fill-34" sketch:type="MSShapeGroup" class="st5" d="M180.6,439.6c-0.5-0.1,12.2,0.9,24.7,0.4c0,0,0.7-2.4,1.6-3.7
			c0,0-0.2,4,0.9,4.8c0,0-6.2,2.5-12.5,2.4c0,0,6.8-1.1,9.1-2.3C204.4,441.3,191.9,441.9,180.6,439.6"/>
	</g>
</g>
</svg>
