<?xml version="1.0" encoding="utf-8"?>
<!-- Generator: Adobe Illustrator 21.0.2, SVG Export Plug-In . SVG Version: 6.00 Build 0)  -->
<svg version="1.1" id="Layer_1" xmlns="http://www.w3.org/2000/svg" xmlns:xlink="http://www.w3.org/1999/xlink" x="0px" y="0px"
	 viewBox="0 0 128 128" style="enable-background:new 0 0 128 128;" xml:space="preserve">
<style type="text/css">
	.st0{fill:#F03C2E;}
	.st1{fill:#FFFFFF;}
</style>
<rect class="st0" width="128" height="128"/>
<path class="st1" d="M102.5,60.4L67.6,25.5c-2-2-5.3-2-7.3,0L53,32.8l9.2,9.2c2.1-0.7,4.6-0.2,6.3,1.5c1.7,1.7,2.2,4.2,1.5,6.3
	l8.8,8.8c2.2-0.8,4.6-0.3,6.3,1.5c2.4,2.4,2.4,6.2,0,8.6c-2.4,2.4-6.2,2.4-8.6,0c-1.8-1.8-2.2-4.4-1.3-6.7l-8.4-8.2v21.8
	c0.6,0.3,1.1,0.7,1.6,1.2c2.4,2.4,2.4,6.2,0,8.6c-2.4,2.4-6.2,2.4-8.6,0c-2.4-2.4-2.4-6.2,0-8.6c0.6-0.6,1.3-1.1,2-1.3v-22
	c-0.7-0.3-1.4-0.8-2-1.3c-1.8-1.8-2.2-4.5-1.3-6.7l-9.1-9.1L25.5,60.3c-2,2-2,5.3,0,7.3l34.9,34.9c2,2,5.3,2,7.3,0l34.8-34.8
	C104.5,65.7,104.5,62.5,102.5,60.4"/>
</svg>
