<?xml version="1.0" encoding="utf-8"?>
<!-- Generator: Adobe Illustrator 19.2.0, SVG Export Plug-In . SVG Version: 6.00 Build 0)  -->
<svg version="1.1" id="Layer_1" xmlns="http://www.w3.org/2000/svg" xmlns:xlink="http://www.w3.org/1999/xlink" x="0px" y="0px"
	 viewBox="0 0 512 512" style="enable-background:new 0 0 512 512;" xml:space="preserve">
<style type="text/css">
	.st0{fill:#33A9DC;}
	.st1{fill:#FFFFFF;}
	.st2{fill:#F0652A;}
</style>
<g>
	<polygon class="st0" points="287.7,0 512,0 512,512 224.3,512 	"/>
	<path class="st1" d="M450.6,199.6L430,302l-61.6,20.4L314.8,302l5.4-27.4H343l-2.4,11.2l32.6,12.2l37.4-12.2l5.2-26.2h-92.6
		l4.4-22.8h93l2.8-14.6h-92.6l4.6-22.8C335.2,199.6,450.6,199.6,450.6,199.6z"/>
</g>
<g>
	<polygon class="st2" points="0,0 287.7,0 224.3,512 0,512 	"/>
	<path class="st1" d="M67,192l11,124.2l49.6,14l50-14L188.8,192H67z M164.8,232.4h-58.4l1.2,15.6h55.6l-4.4,47.2l-31,8.4l0,0h-0.2
		l-31.2-8.8L94.6,271h15.2l1,12l16.8,4.6l16.8-4.6l1.8-19.8H94l-4-46h76.2L164.8,232.4z"/>
</g>
<g>
</g>
<g>
</g>
<g>
</g>
<g>
</g>
<g>
</g>
<g>
</g>
<g>
</g>
<g>
</g>
<g>
</g>
<g>
</g>
<g>
</g>
<g>
</g>
<g>
</g>
<g>
</g>
<g>
</g>
</svg>
