<?xml version="1.0" encoding="utf-8"?>
<!-- Generator: Adobe Illustrator 19.2.0, SVG Export Plug-In . SVG Version: 6.00 Build 0)  -->
<svg version="1.1" id="Layer_1" xmlns="http://www.w3.org/2000/svg" xmlns:xlink="http://www.w3.org/1999/xlink" x="0px" y="0px"
	 viewBox="0 0 512 512" style="enable-background:new 0 0 512 512;" xml:space="preserve">
<style type="text/css">
	.st0{fill:#7DAF79;}
	.st1{fill:#FFFFFF;}
	.st2{fill:#EDEDED;}
	.st3{fill:none;stroke:#000000;stroke-width:7;stroke-linecap:round;stroke-miterlimit:10;}
	.st4{fill:#E15855;}
	.st5{display:none;opacity:0.191;fill:#010101;enable-background:new    ;}
	.st6{fill:#CA403A;}
	.st7{display:none;opacity:0.1;fill:#010101;enable-background:new    ;}
	.st8{fill:#8FC84E;}
</style>
<g>
	<rect class="st0" width="255.5" height="255.5"/>
	<path id="path68" class="st1" d="M71,201c-0.4-0.6-0.7-2.2-0.6-4.2c0.1-1.5,0.4-2.5,0.6-2.8
		c4-0.6,5.8-1,8.1-1.6c3.7-0.9,5.1-2.9,5.3-7.7c0.6-11.2,0.6-32.2,0.4-46.9l0-0.4c0-1.6,0-3.7-1.9-5.3c-2.9-1.9-6.5-3.5-11.1-4.9
		c-1.8-0.5-2.7-1.4-2.7-2.5c0.1-1,1.2-2.4,3.5-2.8c6.1-0.6,22-4.4,28.3-7.3c0.4,0.4,1,1.4,0.8,3c0,0.7-0.1,1.3-0.2,2
		c-0.2,2.1-0.4,4.4-0.4,6.8c0,0.7,0.8,1.4,1.6,1.4c0.4,0,0.8-0.2,1.1-0.5c11.9-9.3,22.6-12.7,28.1-12.7c9,0,16.1,4.3,21.5,13.2
		c0.3,0.5,0.7,0.7,1.2,0.7c0.5,0,0.9-0.2,1.1-0.6c11-8.3,21.8-13.3,29.1-13.3c17.2,0,27.5,12.9,27.5,34.4c0,6.2-0.1,14-0.1,21.4
		c-0.1,6.4-0.1,12.4-0.1,16.6c0,1,1.4,3.8,3.4,4.4c2.5,1.2,6.1,1.8,10.7,2.6l0.2,0c0.3,1.2-0.4,6-1.1,7c-1.1,0-2.7-0.1-4.7-0.2
		c-3.6-0.2-8.5-0.4-14.2-0.4c-11.4,0-17.4,0.2-23.1,0.6c-0.4-1.4-0.6-6-0.1-7c3.3-0.6,5-1,7-1.6c3.6-1.2,4.7-2.8,4.9-7.7
		c0.1-3.4,0.7-33.6-0.4-40.8c-1.1-7.4-6.7-16.1-19-16.1c-4.5,0-11.9,1.9-18.9,7.2c-0.4,0.4-0.7,1.2-0.7,1.8l0,0.1
		c0.8,3.9,0.8,8.4,0.8,15.2c0,3.9,0,8,0,12.1c0,8.3-0.1,16.2,0,22.1c0,4,2.5,5,4.4,5.8c1.1,0.2,1.9,0.4,2.8,0.6
		c1.7,0.4,3.4,0.8,5.9,1.2c0.3,0.8,0.4,3.2-0.1,5.2c-0.3,1.1-0.6,1.6-0.7,1.8c-6.4-0.2-12.9-0.4-22.3-0.4c-2.9,0-7.5,0.1-11.6,0.2
		c-3.3,0.1-6.5,0.2-8.3,0.2c-0.3-0.4-0.6-1.7-0.6-3.6c0-1.8,0.3-3,0.7-3.4c0.9-0.2,1.7-0.3,2.5-0.5c2.2-0.4,4.1-0.7,5.9-1.2
		c3.1-0.9,4.3-2.7,4.5-6.6c0.6-9.2,1.1-35.8-0.2-42.5c-2.2-10.7-8.3-16.1-18.1-16.1c-5.7,0-13,2.8-18.9,7.2c-1,0.7-1.7,2.6-1.7,4.3
		c0,3.2,0,6.9,0,11c0,13.4-0.1,30,0.2,37.2c0.2,2.2,1,4.8,5.1,5.8c0.9,0.3,2.5,0.5,4.3,0.8c1.1,0.2,2.2,0.4,3.4,0.6
		c0.4,1.1,0.2,5.6-0.6,7c-1.8,0-4.1-0.1-6.6-0.2c-3.9-0.2-8.8-0.4-14.4-0.4c-6.6,0-11.1,0.2-14.8,0.4C75.3,200.9,73.1,201,71,201
		L71,201"/>
</g>
<g>
	<rect x="256" class="st2" width="256" height="256"/>
	<g>
		<path class="st3" d="M400.9,172c-4.9,22.5-17.9,34.5-41.9,34.5c-33,0-42.4-21.4-42.4-52.3c0-26.7,13.9-50.1,41.3-50.8
			c37.7-0.8,44.9,39,43.1,50.5c-13.6,0.5-42.1,0-84.5,0.2"/>
	</g>
</g>
<g>
	<polyline class="st4" points="0,512 255.4,512 255.4,256.6 0,256.6 0,512 	"/>
	<polyline class="st5" points="189.7,340.4 88.9,378.8 75.9,421.2 174.7,512 256,512 256,411.2 189.7,340.4 	"/>
	<g>
		<polyline class="st1" points="153.6,294 91.9,315.7 101.7,396.4 153.7,425 205.9,396.1 215.7,315.3 153.6,294 		"/>
		<polyline class="st6" points="209.5,319.9 153.5,300.8 153.5,418.2 200.4,392.2 209.5,319.9 		"/>
		<polyline class="st4" points="98.9,320.3 107.2,392.5 153.5,418.2 153.5,300.8 98.9,320.3 		"/>
		<path class="st1" d="M167.4,359.6l-13.8-27.4l-11.3,26.9h11.2L167.4,359.6 M168.9,363.3l-15.4,7.2h-16.3l-7.6,19.1l-14.2,0.2
			l38.1-84.8L168.9,363.3z"/>
		<polyline class="st1" points="153.5,305.1 153.6,332.3 166.4,359.2 153.5,359.2 153.5,370.5 171.4,370.5 179.7,389.9 193.4,390.1 
			153.5,305.1 		"/>
	</g>
</g>
<path class="st7" d="M603.3,525.9c-15-19-36.1-47.9-36.1-47.9l-174.9-0.1l-10,28l89.5,105h131.5V525.9"/>
<g>
	<polyline class="st8" points="256,512 512,512 512,256 256,256 256,512 	"/>
	<path class="st1" d="M407.8,332.1c0-2.1-1.1-4-2.9-5.1l-48-27.7c-0.8-0.5-1.7-0.7-2.7-0.8h-0.5c-0.9,0-1.9,0.3-2.7,0.8l-48,27.7
		c-1.7,1.1-2.9,2.9-2.9,5.1l0.1,74.5c0,1.1,0.5,2,1.5,2.5c0.9,0.5,2,0.5,2.9,0l28.6-16.3c1.9-1.1,2.9-2.9,2.9-5.1v-34.8
		c0-2.1,1.1-4,2.9-5.1l12.2-7c0.9-0.5,1.9-0.8,2.9-0.8c0.9,0,2,0.3,2.9,0.8l12.2,7c1.7,1.1,2.9,2.9,2.9,5.1v34.8c0,2,1.1,4,2.9,5.1
		l28.5,16.3c0.9,0.5,2,0.5,2.9,0c0.9-0.5,1.5-1.5,1.5-2.5L407.8,332.1"/>
</g>
<g>
</g>
<g>
</g>
<g>
</g>
<g>
</g>
<g>
</g>
<g>
</g>
<g>
</g>
<g>
</g>
<g>
</g>
<g>
</g>
<g>
</g>
<g>
</g>
<g>
</g>
<g>
</g>
<g>
</g>
</svg>
