<?xml version="1.0" encoding="utf-8"?>
<!-- Generator: Adobe Illustrator 21.0.2, SVG Export Plug-In . SVG Version: 6.00 Build 0)  -->
<svg version="1.1"
	 id="svg2" inkscape:version="0.91 r13725" sodipodi:docname="MongoDB-Logo.svg" xmlns:cc="http://creativecommons.org/ns#" xmlns:dc="http://purl.org/dc/elements/1.1/" xmlns:inkscape="http://www.inkscape.org/namespaces/inkscape" xmlns:rdf="http://www.w3.org/1999/02/22-rdf-syntax-ns#" xmlns:sodipodi="http://sodipodi.sourceforge.net/DTD/sodipodi-0.dtd" xmlns:svg="http://www.w3.org/2000/svg"
	 xmlns="http://www.w3.org/2000/svg" xmlns:xlink="http://www.w3.org/1999/xlink" x="0px" y="0px" viewBox="0 0 128 128"
	 style="enable-background:new 0 0 128 128;" xml:space="preserve">
<style type="text/css">
	.st0{fill:#58AA50;}
	.st1{fill:#FFFFFF;}
	.st2{fill:#A6A385;stroke:#FFFFFF;stroke-width:2;stroke-miterlimit:10;}
	.st3{fill:#499D4A;stroke:#FFFFFF;stroke-width:2;stroke-miterlimit:10;}
	.st4{fill:#58AA50;stroke:#FFFFFF;stroke-width:2;stroke-miterlimit:10;}
</style>
<rect class="st0" width="128" height="128"/>
<sodipodi:namedview  bordercolor="#666666" borderopacity="1" gridtolerance="10" guidetolerance="10" id="namedview4" inkscape:current-layer="g10" inkscape:cx="210.82244" inkscape:cy="57.558266" inkscape:pageopacity="0" inkscape:pageshadow="2" inkscape:window-height="1145" inkscape:window-maximized="1" inkscape:window-width="1920" inkscape:window-x="0" inkscape:window-y="0" inkscape:zoom="2.0079853" objecttolerance="10" pagecolor="#ffffff" showgrid="false">
	</sodipodi:namedview>
<g>
	<path class="st1" d="M66.2,112l-2.6-0.9c0,0,0.3-13-4.4-14c-3.1-3.6,0.5-153.4,11.7-0.5c0,0-3.9,1.9-4.5,5.2
		C65.7,105.1,66.2,112,66.2,112L66.2,112L66.2,112z"/>
	<path class="st2" d="M66.2,112l-2.6-0.9c0,0,0.3-13-4.4-14c-3.1-3.6,0.5-153.4,11.7-0.5c0,0-3.9,1.9-4.5,5.2
		C65.7,105.1,66.2,112,66.2,112L66.2,112L66.2,112z"/>
	<path class="st1" d="M67.6,99.4c0,0,22.4-14.7,17.1-45.3c-5-22.2-17-29.5-18.3-32.3c-1.4-2-2.8-5.5-2.8-5.5l0.9,61.9
		C64.6,78.2,62.7,97.1,67.6,99.4"/>
	<path class="st3" d="M67.6,99.4c0,0,22.4-14.7,17.1-45.3c-5-22.2-17-29.5-18.3-32.3c-1.4-2-2.8-5.5-2.8-5.5l0.9,61.9
		C64.6,78.2,62.7,97.1,67.6,99.4"/>
	<path class="st1" d="M62.3,100.2c0,0-21-14.3-19.8-39.6c1.2-25.2,16-37.6,18.9-39.9c1.9-2,2-2.7,2.2-4.7c1.3,2.8,1.1,41.9,1.2,46.6
		C65.3,80.3,63.8,96.9,62.3,100.2L62.3,100.2L62.3,100.2z"/>
	<path class="st4" d="M62.3,100.2c0,0-21-14.3-19.8-39.6c1.2-25.2,16-37.6,18.9-39.9c1.9-2,2-2.7,2.2-4.7c1.3,2.8,1.1,41.9,1.2,46.6
		C65.3,80.3,63.8,96.9,62.3,100.2L62.3,100.2L62.3,100.2z"/>
</g>
</svg>
