<?xml version="1.0" encoding="utf-8"?>
<!-- Generator: Adobe Illustrator 21.0.2, SVG Export Plug-In . SVG Version: 6.00 Build 0)  -->
<svg version="1.1" id="Layer_1" xmlns="http://www.w3.org/2000/svg" xmlns:xlink="http://www.w3.org/1999/xlink" x="0px" y="0px"
	 viewBox="0 0 512 512" style="enable-background:new 0 0 512 512;" xml:space="preserve">
<style type="text/css">
	.st0{fill:#689F63;}
	.st1{fill:#FFFFFF;}
</style>
<polyline class="st0" points="0,512 512,512 512,0 0,0 0,512 "/>
<g>
	<path class="st1" d="M284.7,314.2c-46.3,0-56-21.2-56-39.1c0-1.7,1.4-3,3.1-3h13.7c1.5,0,2.8,1.1,3,2.6
		c2.1,13.9,8.2,20.9,36.2,20.9c22.3,0,31.8-5,31.8-16.9c0-6.8-2.7-11.9-37.3-15.2c-29-2.9-46.9-9.2-46.9-32.4c0-21.3,18-34,48.2-34
		c33.9,0,50.6,11.8,52.8,37c0.1,0.9-0.2,1.7-0.8,2.4c-0.6,0.6-1.4,1-2.3,1h-13.7c-1.4,0-2.7-1-3-2.4c-3.3-14.6-11.3-19.3-33-19.3
		c-24.3,0-27.2,8.5-27.2,14.8c0,7.7,3.3,10,36.2,14.3c32.5,4.3,47.9,10.4,47.9,33.2c0,23-19.2,36.2-52.7,36.2"/>
	<path class="st1" d="M256.1,400.3c-3.9,0-7.7-1-11.1-3l-35.3-20.9c-5.3-2.9-2.7-4-1-4.6c7-2.5,8.5-3,16-7.3
		c0.8-0.5,1.8-0.3,2.6,0.2l27.1,16.1c1,0.5,2.4,0.5,3.3,0l105.8-61c1-0.6,1.6-1.7,1.6-2.9v-122c0-1.2-0.6-2.3-1.6-2.9l-105.7-61
		c-1-0.6-2.3-0.6-3.3,0l-105.7,61c-1,0.6-1.7,1.7-1.7,2.9v122c0,1.2,0.6,2.3,1.6,2.8l29,16.7c15.7,7.9,25.3-1.4,25.3-10.7V205.3
		c0-1.7,1.3-3,3.1-3h13.4c1.7,0,3,1.3,3,3v120.5c0,21-11.4,33-31.3,33c-6.1,0-10.9,0-24.4-6.6l-27.7-16c-6.9-4-11.1-11.4-11.1-19.3
		v-122c0-7.9,4.2-15.4,11.1-19.3l105.9-61.1c6.7-3.8,15.6-3.8,22.2,0l105.7,61.1c6.8,3.9,11.1,11.3,11.1,19.3v122
		c0,7.9-4.3,15.3-11.1,19.3l-105.7,61.1C263.8,399.2,260,400.2,256.1,400.3"/>
</g>
</svg>
