<?xml version="1.0" encoding="utf-8"?>
<!-- Generator: Adobe Illustrator 21.0.2, SVG Export Plug-In . SVG Version: 6.00 Build 0)  -->
<svg version="1.1"
	 id="svg2169" inkscape:output_extension="org.inkscape.output.svg.inkscape" inkscape:version="0.45.1" sodipodi:docbase="/home/bene/Desktop" sodipodi:docname="dessin-1.svg" sodipodi:version="0.32" xmlns:cc="http://web.resource.org/cc/" xmlns:dc="http://purl.org/dc/elements/1.1/" xmlns:inkscape="http://www.inkscape.org/namespaces/inkscape" xmlns:rdf="http://www.w3.org/1999/02/22-rdf-syntax-ns#" xmlns:sodipodi="http://sodipodi.sourceforge.net/DTD/sodipodi-0.dtd" xmlns:svg="http://www.w3.org/2000/svg"
	 xmlns="http://www.w3.org/2000/svg" xmlns:xlink="http://www.w3.org/1999/xlink" x="0px" y="0px" viewBox="0 0 128 128"
	 style="enable-background:new 0 0 128 128;" xml:space="preserve">
<style type="text/css">
	.st0{fill:#2B5B84;}
	.st1{fill:#FFFFFF;}
	.st2{fill:url(#path8615_1_);}
	.st3{fill:url(#path8620_1_);}
</style>
<rect class="st0" width="128" height="128"/>
<sodipodi:namedview  bordercolor="#666666" borderopacity="1.0" height="184.25197px" id="base" inkscape:current-layer="layer1" inkscape:cx="-260.46312" inkscape:cy="316.02744" inkscape:document-units="px" inkscape:pageopacity="0.0" inkscape:pageshadow="2" inkscape:window-height="624" inkscape:window-width="872" inkscape:window-x="5" inkscape:window-y="48" inkscape:zoom="0.24748737" pagecolor="#ffffff" width="131.10236px">
	</sodipodi:namedview>
<g>
	<rect x="49.3" y="30.2" class="st1" width="7.2" height="7.2"/>
	<rect x="71.3" y="90.6" class="st1" width="7.2" height="7.2"/>
	<g id="layer1" transform="translate(-473.36088,-251.72485)" inkscape:groupmode="layer" inkscape:label="Calque 1">
		<g id="g1894" transform="translate(428.42338,184.2561)">
			
				<linearGradient id="path8615_1_" gradientUnits="userSpaceOnUse" x1="256.0916" y1="1100.5638" x2="295.6569" y2="1140.2615" gradientTransform="matrix(1 0 0 1 -179.75 -1001.692)">
				<stop  offset="0" style="stop-color:#387EB8"/>
				<stop  offset="1" style="stop-color:#366994"/>
			</linearGradient>
			<path id="path8615" class="st2" d="M108.5,91.7c-20.3,0-19,8.8-19,8.8v9.2h19.4v2.8h-27c0,0-13-1.4-13,19s11.4,19.8,11.4,19.8H87
				v-9.5c0,0-0.4-11.4,11.2-11.4s19.2,0,19.2,0s10.8,0.2,10.8-10.4s0-17.5,0-17.5S129.8,91.7,108.5,91.7z M97.9,97.8
				c2,0,3.5,1.6,3.5,3.5s-1.6,3.5-3.5,3.5s-3.5-1.5-3.5-3.5S95.9,97.8,97.9,97.8z"/>
			
				<linearGradient id="path8620_1_" gradientUnits="userSpaceOnUse" x1="280.4765" y1="1125.7804" x2="322.9698" y2="1166.4908" gradientTransform="matrix(1 0 0 1 -179.75 -1001.692)">
				<stop  offset="0" style="stop-color:#FFE052"/>
				<stop  offset="1" style="stop-color:#FFC331"/>
			</linearGradient>
			<path id="path8620" class="st3" d="M109.2,171.3c20.3,0,19-8.8,19-8.8v-9.2h-19.4v-2.8h27.1c0,0,13,1.4,13-19
				s-11.4-19.8-11.4-19.8h-6.8v9.5c0,0,0.4,11.4-11.2,11.4s-19.2,0-19.2,0s-10.8-0.2-10.8,10.4s0,17.5,0,17.5
				S87.9,171.3,109.2,171.3z M119.8,165.1c-2,0-3.5-1.6-3.5-3.5s1.6-3.5,3.5-3.5s3.5,1.6,3.5,3.5
				C123.4,163.6,121.8,165.1,119.8,165.1z"/>
		</g>
	</g>
</g>
</svg>
