<?xml version="1.0" encoding="utf-8"?>
<!-- Generator: Adobe Illustrator 21.0.2, SVG Export Plug-In . SVG Version: 6.00 Build 0)  -->
<svg version="1.1" id="Layer_2" xmlns="http://www.w3.org/2000/svg" xmlns:xlink="http://www.w3.org/1999/xlink" x="0px" y="0px"
	 viewBox="0 0 600 600" style="enable-background:new 0 0 600 600;" xml:space="preserve">
<style type="text/css">
	.st0{fill:#00C7EA;}
	.st1{fill:#FFFFFF;}
	.st2{fill:none;stroke:#FFFFFF;stroke-width:24;stroke-miterlimit:10;}
</style>
<rect class="st0" width="600" height="600"/>
<g>
	<circle class="st1" cx="300" cy="299.7" r="32.6"/>
	<path class="st2" d="M300,233.4c43.8,0,84.4,6.3,115.1,16.8c36.9,12.7,59.7,32,59.7,49.5c0,18.2-24,38.7-63.8,51.8
		c-30,9.9-69.5,15.1-111,15.1c-42.6,0-82.9-4.9-113.3-15.2c-38.3-13.1-61.5-33.9-61.5-51.7c0-17.3,21.7-36.4,58.1-49.1
		C214.1,239.9,255.8,233.4,300,233.4z"/>
	<path class="st2" d="M242.3,266.8c21.8-37.9,47.6-70,72.1-91.3c29.5-25.7,57.5-35.7,72.7-27c15.7,9.1,21.4,40.2,13.1,81.1
		c-6.4,30.9-21.6,67.7-42.4,103.7c-21.3,36.9-45.7,69.4-69.8,90.5c-30.5,26.7-60.1,36.3-75.5,27.4c-15-8.6-20.7-37-13.5-74.9
		C205,344.4,220.3,305.1,242.3,266.8z"/>
	<path class="st2" d="M242.3,333.5c-21.9-37.9-36.9-76.2-43.1-108.1c-7.5-38.3-2.2-67.7,12.9-76.4c15.7-9.1,45.6,1.4,76.8,29.2
		c23.7,21,47.9,52.5,68.7,88.5c21.3,36.9,37.4,74.2,43.5,105.7c7.9,39.8,1.5,70.2-14,79.1c-15,8.6-42.4-0.5-71.6-25.7
		C291,404.6,264.5,371.7,242.3,333.5z"/>
</g>
</svg>
