<?xml version="1.0" encoding="utf-8"?>
<!-- Generator: Adobe Illustrator 21.0.2, SVG Export Plug-In . SVG Version: 6.00 Build 0)  -->
<svg version="1.1" id="Слой_1" xmlns="http://www.w3.org/2000/svg" xmlns:xlink="http://www.w3.org/1999/xlink" x="0px" y="0px"
	 viewBox="0 0 256 256" style="enable-background:new 0 0 256 256;" xml:space="preserve">
<style type="text/css">
	.st0{fill:#764ABC;}
	.st1{fill:#FFFFFF;}
</style>
<rect class="st0" width="256" height="256"/>
<g>
	<path class="st1" d="M152.7,152.1c4.7-0.5,8.3-4.6,8.2-9.5c-0.1-4.9-4.3-8.8-9.1-8.8h-0.3c-5.1,0.2-9,4.4-8.8,9.5
		c0.2,2.4,1.2,4.6,2.6,6c-5.5,10.9-14,18.9-26.7,25.6c-8.7,4.6-17.6,6.2-26.6,5.1c-7.3-1-13.1-4.2-16.6-9.6
		c-5.2-8-5.7-16.6-1.3-25.3c3.1-6.2,8-10.7,11.1-13.1c-0.7-2.1-1.6-5.7-2.1-8.3c-23.6,17.1-21.2,40.3-14,51.2
		c5.4,8.2,16.3,13.2,28.4,13.2c3.2,0,6.5-0.3,9.8-1.2C127.9,182.9,143.7,170.5,152.7,152.1z"/>
	<path class="st1" d="M181.4,131.9c-12.4-14.5-30.6-22.5-51.5-22.5h-2.6c-1.5-2.9-4.6-4.9-8-4.9h-0.3c-5.1,0.2-9,4.4-8.8,9.5
		c0.2,4.9,4.2,8.8,9.1,8.8h0.3c3.6-0.2,6.7-2.4,8-5.5h2.9c12.4,0,24.1,3.6,34.7,10.6c8.2,5.4,14,12.4,17.3,20.9
		c2.8,6.8,2.6,13.5-0.3,19.2c-4.6,8.7-12.2,13.4-22.3,13.4c-6.5,0-12.7-2-16-3.4c-1.8,1.6-5.1,4.2-7.3,5.9c7,3.2,14.2,5.1,21,5.1
		c15.6,0,27.2-8.7,31.6-17.3C193.9,162,193.6,145.7,181.4,131.9z"/>
	<path class="st1" d="M98.6,154.9c0.2,4.9,4.2,8.8,9.1,8.8h0.3c5.1-0.2,9-4.4,8.8-9.5c-0.2-4.9-4.2-8.8-9.1-8.8h-0.3
		c-0.3,0-0.8,0-1.2,0.2c-6.7-11.1-9.5-23.1-8.5-36.2c0.7-9.8,3.9-18.3,9.6-25.3c4.7-6,13.9-9,20-9.1c17.3-0.3,24.6,21.2,25.1,29.8
		c2.1,0.5,5.7,1.6,8.2,2.4c-2-26.4-18.3-40.1-33.9-40.1c-14.7,0-28.2,10.6-33.6,26.2c-7.5,20.9-2.6,40.9,6.5,56.7
		C98.9,151.3,98.4,153.1,98.6,154.9z"/>
</g>
</svg>
