<?xml version="1.0" encoding="utf-8"?>
<!-- Generator: Adobe Illustrator 21.0.2, SVG Export Plug-In . SVG Version: 6.00 Build 0)  -->
<svg version="1.1" id="Layer_1" xmlns="http://www.w3.org/2000/svg" xmlns:xlink="http://www.w3.org/1999/xlink" x="0px" y="0px"
	 viewBox="0 0 128 128" style="enable-background:new 0 0 128 128;" xml:space="preserve">
<style type="text/css">
	.st0{fill:#CC342D;}
	.st1{fill:#FFFFFF;}
</style>
<rect class="st0" width="128" height="128"/>
<g>
	<path class="st1" d="M102.4,53.3H25.6c-0.6,0-1.2-0.4-1.4-1c-0.2-0.6-0.2-1.2,0.2-1.7l18.4-21.9c0.3-0.4,0.7-0.6,1.2-0.6h40
		c0.5,0,0.9,0.2,1.2,0.6l18.4,21.9c0.4,0.5,0.5,1.1,0.2,1.7C103.6,52.9,103.1,53.3,102.4,53.3z M29,50.1h70L83.3,31.4H44.8L29,50.1z
		"/>
	<polygon class="st1" points="64,99.8 24.4,52.7 26.8,50.6 64,94.8 101.2,50.6 103.6,52.7 	"/>
	<path class="st1" d="M64,98.9L64,98.9c-0.6,0-1.3-0.4-1.5-1L46.4,52.2c-0.2-0.5-0.1-1,0.2-1.5l16.1-21.9c0.6-0.8,2-0.8,2.6,0
		l16.1,21.9c0.3,0.4,0.4,1,0.2,1.5L65.5,97.9C65.3,98.5,64.7,98.9,64,98.9z M49.7,51.9L64,92.5l14.3-40.6L64,32.5L49.7,51.9z"/>
	<rect x="44.4" y="29.7" transform="matrix(0.9844 -0.1759 0.1759 0.9844 -6.4493 8.7249)" class="st1" width="3.2" height="22.2"/>
	<rect x="70.9" y="39.1" transform="matrix(0.176 -0.9844 0.9844 0.176 27.4944 114.2995)" class="st1" width="22.2" height="3.2"/>
</g>
</svg>
