<?xml version="1.0" encoding="utf-8"?>
<!-- Generator: Adobe Illustrator 21.0.2, SVG Export Plug-In . SVG Version: 6.00 Build 0)  -->
<svg version="1.1" id="Слой_1" xmlns="http://www.w3.org/2000/svg" xmlns:xlink="http://www.w3.org/1999/xlink" x="0px" y="0px"
	 viewBox="0 0 512 512" style="enable-background:new 0 0 512 512;" xml:space="preserve">
<style type="text/css">
	.st0{fill:#2B3A42;stroke:#000000;stroke-miterlimit:10;}
	.st1{fill:#FFFFFF;}
	.st2{fill:#8ED6FB;}
	.st3{fill:#1C78C0;}
</style>
<rect class="st0" width="512" height="512"/>
<title>icon-square-small</title>
<path class="st1" d="M256,111.2l128,72.4v144.9l-128,72.4l-128-72.4V183.6L256,111.2z"/>
<path class="st2" d="M367.9,327.8l-107.4,60.8v-47.3l67-36.8L367.9,327.8z M375.4,321.2V194l-39.3,22.7v81.8L375.4,321.2z
	 M143.6,327.8L251,388.5v-47.3l-67-36.8L143.6,327.8z M136.4,321.2V194l39.3,22.7v81.8C175.6,298.5,136.4,321.2,136.4,321.2z
	 M140.9,185.7l110.2-62.3v45.8l-70.7,38.9l-0.5,0.3L140.9,185.7L140.9,185.7z M370.7,185.7l-110.2-62.3v45.8l70.6,38.9l0.5,0.3
	L370.7,185.7L370.7,185.7z"/>
<path class="st3" d="M251.1,331.5l-66.7-36.8V222l66.7,38.5V331.5z M260.6,331.5l66.7-36.7V222l-66.7,38.5V331.5z M188.8,213.5
	l67-36.8l66.9,36.8l-66.9,38.7L188.8,213.5z"/>
</svg>
