<?xml version="1.0" encoding="utf-8"?>
<!-- Generator: Adobe Illustrator 19.1.0, SVG Export Plug-In . SVG Version: 6.00 Build 0)  -->
<svg version="1.1" id="Lager_1" xmlns="http://www.w3.org/2000/svg" xmlns:xlink="http://www.w3.org/1999/xlink" x="0px" y="0px"
	 viewBox="-241 333 128 128" style="enable-background:new -241 333 128 128;" xml:space="preserve">
<style type="text/css">
	.st0{fill:#21759B;}
	.st1{fill:#FFFFFF;}
</style>
<g>
	<rect x="-241" y="333" class="st0" width="128" height="128"/>
	<g>
		<g>
			<circle class="st0" cx="-177" cy="397" r="64"/>
		</g>
	</g>
	<path class="st1" d="M-212.2,397c0,14,8.1,26,19.8,31.6l-16.8-46C-211,387-212.2,391.9-212.2,397z M-153.3,395.2
		c0-4.4-1.5-7.3-2.9-9.7c-1.8-2.9-3.5-5.4-3.5-8.2c0-3.2,2.4-6.3,5.9-6.3c0.1,0,0.3,0,0.5,0c-6.3-5.8-14.6-9.2-23.7-9.2
		c-12.3,0-23,6.3-29.3,15.9c0.8,0,1.7,0,2.3,0c3.7,0,9.3-0.5,9.3-0.5c1.9-0.1,2.2,2.7,0.3,2.9c0,0-1.9,0.3-4,0.4l12.8,38l7.7-23
		l-5.5-15c-2-0.1-3.8-0.3-3.8-0.3c-1.9-0.1-1.7-3.1,0.3-2.9c0,0,5.8,0.5,9.2,0.5c3.7,0,9.3-0.5,9.3-0.5c1.9-0.1,2.2,2.7,0.3,2.9
		c0,0-1.9,0.3-4,0.4l12.7,37.8l3.5-11.6C-154.2,402-153.3,398.3-153.3,395.2z M-176.4,400.1l-10.5,30.6c3.2,0.9,6.5,1.4,10,1.4
		c4.1,0,8.1-0.8,11.6-2c-0.1-0.1-0.1-0.3-0.3-0.5L-176.4,400.1z M-146.2,380.1c0.1,1.2,0.3,2.3,0.3,3.6c0,3.6-0.6,7.6-2.7,12.5
		l-10.8,31c10.5-5.9,17.5-17.3,17.5-30.2C-141.8,390.9-143.5,385.1-146.2,380.1z M-218,397c0,22.5,18.4,41,41,41s41-18.4,41-41
		s-18.4-41-41-41S-218,374.5-218,397z M-216,397c0-21.5,17.5-39,39-39s39,17.5,39,39s-17.5,39-39,39S-216,418.5-216,397z"/>
</g>
</svg>
