<?xml version="1.0" encoding="utf-8"?>
<!-- Generator: Adobe Illustrator 19.1.0, SVG Export Plug-In . SVG Version: 6.00 Build 0)  -->
<svg version="1.1" id="Layer_1" xmlns="http://www.w3.org/2000/svg" xmlns:xlink="http://www.w3.org/1999/xlink" x="0px" y="0px"
	 viewBox="-49 141 512 512" style="enable-background:new -49 141 512 512;" xml:space="preserve">
<style type="text/css">
	.st0{fill:#E15855;}
	.st1{display:none;opacity:0.191;fill:#010101;enable-background:new    ;}
	.st2{fill:#FFFFFF;}
	.st3{fill:#CA403A;}
</style>
<g>
	<polyline class="st0" points="-49,653 463,653 463,141 -49,141 -49,653 	"/>
	<polyline class="st1" points="332.4,309 130.4,386 104.4,471 302.4,653 465.4,653 465.4,451 332.4,309 	"/>
	<polyline class="st2" points="208,266 84.4,309.5 103.9,471.4 208.1,528.7 312.9,470.7 332.4,308.7 208,266 	"/>
	<polyline class="st3" points="320.1,318.1 207.7,279.8 207.7,515 301.9,462.9 320.1,318.1 	"/>
	<polyline class="st0" points="98.3,318.8 115,463.6 207.7,515 207.7,279.8 98.3,318.8 	"/>
	<path class="st2" d="M235.7,397.7l-27.7-54.9l-22.7,54h22.5L235.7,397.7 M238.6,405l-30.9,14.5h-32.6l-15.3,38.3l-28.5,0.5
		l76.4-170L238.6,405z"/>
	<polyline class="st2" points="207.7,288.3 207.9,342.8 233.7,396.8 207.8,396.8 207.7,419.4 243.6,419.5 260.4,458.3 287.7,458.8 
		207.7,288.3 	"/>
</g>
</svg>
