<?xml version="1.0" encoding="utf-8"?>
<!-- Generator: Adobe Illustrator 21.0.2, SVG Export Plug-In . SVG Version: 6.00 Build 0)  -->
<svg version="1.1" id="Layer_1" xmlns="http://www.w3.org/2000/svg" xmlns:xlink="http://www.w3.org/1999/xlink" x="0px" y="0px"
	 viewBox="0 0 500 500" style="enable-background:new 0 0 500 500;" xml:space="preserve">
<style type="text/css">
	.st0{fill:#68217A;}
	.st1{enable-background:new    ;}
	.st2{fill:#FFFFFF;}
</style>
<rect class="st0" width="500" height="500"/>
<g class="st1">
	<path class="st2" d="M133.2,285h-9.1l-7.4-19.6H87L80,285h-9.1l26.9-70h8.5L133.2,285z M114,258l-11-29.8c-0.4-1-0.7-2.5-1.1-4.7
		h-0.2c-0.3,2-0.7,3.5-1.1,4.7L89.7,258H114z"/>
	<path class="st2" d="M138.2,282.2v-9.7c1.1,1,2.4,1.9,4,2.6c1.5,0.8,3.2,1.4,4.9,2s3.4,1,5.2,1.2c1.7,0.3,3.3,0.4,4.8,0.4
		c5,0,8.8-0.9,11.3-2.8c2.5-1.9,3.7-4.6,3.7-8.1c0-1.9-0.4-3.5-1.2-4.9c-0.8-1.4-2-2.7-3.4-3.8c-1.5-1.2-3.2-2.3-5.2-3.3
		c-2-1.1-4.2-2.2-6.5-3.3c-2.4-1.2-4.7-2.5-6.8-3.8c-2.1-1.3-4-2.7-5.5-4.2c-1.6-1.5-2.8-3.3-3.7-5.2c-0.9-1.9-1.3-4.2-1.3-6.8
		c0-3.2,0.7-6,2.1-8.3c1.4-2.4,3.2-4.3,5.5-5.8c2.3-1.5,4.9-2.7,7.8-3.4c2.9-0.7,5.9-1.1,8.9-1.1c6.9,0,11.9,0.8,15.1,2.5v9.2
		c-4.1-2.9-9.4-4.3-15.9-4.3c-1.8,0-3.6,0.2-5.4,0.6c-1.8,0.4-3.4,1-4.8,1.8c-1.4,0.8-2.5,1.9-3.4,3.3c-0.9,1.3-1.3,3-1.3,4.9
		c0,1.8,0.3,3.3,1,4.6c0.7,1.3,1.7,2.5,3,3.6c1.3,1.1,2.9,2.1,4.8,3.1c1.9,1,4,2.1,6.5,3.3c2.5,1.2,4.9,2.5,7.1,3.9s4.2,2.9,5.9,4.5
		c1.7,1.7,3,3.5,4,5.5c1,2,1.5,4.3,1.5,6.9c0,3.5-0.7,6.4-2,8.8c-1.4,2.4-3.2,4.3-5.5,5.8c-2.3,1.5-4.9,2.6-7.9,3.2
		c-3,0.7-6.2,1-9.5,1c-1.1,0-2.5-0.1-4.1-0.3c-1.6-0.2-3.3-0.4-5-0.8c-1.7-0.3-3.3-0.8-4.8-1.3C140.4,283.4,139.1,282.8,138.2,282.2
		z"/>
	<path class="st2" d="M200.8,258.5V285h-8.2v-70h19.2c7.5,0,13.3,1.8,17.4,5.5c4.1,3.6,6.2,8.8,6.2,15.4s-2.3,12.1-6.9,16.3
		c-4.6,4.2-10.8,6.3-18.5,6.3H200.8z M200.8,222.4v28.7h8.6c5.7,0,10-1.3,13-3.9s4.5-6.2,4.5-11c0-9.2-5.5-13.9-16.4-13.9H200.8z"/>
	<path class="st2" d="M248.3,286.1c-1.5,0-2.8-0.5-3.8-1.6c-1.1-1.1-1.6-2.4-1.6-3.9c0-1.5,0.5-2.8,1.6-3.9c1.1-1.1,2.3-1.6,3.8-1.6
		c1.5,0,2.8,0.5,3.9,1.6c1.1,1.1,1.6,2.4,1.6,3.9c0,1.5-0.5,2.8-1.6,3.9S249.9,286.1,248.3,286.1z"/>
	<path class="st2" d="M322.8,285h-10.1l-36-55.8c-0.9-1.4-1.7-2.9-2.2-4.4h-0.3c0.3,1.5,0.4,4.7,0.4,9.6V285h-8.2v-70H277l35.1,54.9
		c1.5,2.3,2.4,3.8,2.8,4.7h0.2c-0.3-2-0.5-5.5-0.5-10.3V215h8.2V285z"/>
	<path class="st2" d="M376.2,285h-37.1v-70h35.5v7.4h-27.3v23.3h25.3v7.4h-25.3v24.5h28.9V285z"/>
	<path class="st2" d="M429.1,222.4h-20.2V285h-8.2v-62.6h-20.2V215h48.6V222.4z"/>
</g>
</svg>
