<?xml version="1.0" encoding="utf-8"?>
<!-- Generator: Adobe Illustrator 19.1.0, SVG Export Plug-In . SVG Version: 6.00 Build 0)  -->
<svg version="1.1" id="Layer_1" xmlns="http://www.w3.org/2000/svg" xmlns:xlink="http://www.w3.org/1999/xlink" x="0px" y="0px"
	 viewBox="-501.1 147.1 500 500" style="enable-background:new -501.1 147.1 500 500;" xml:space="preserve">
<style type="text/css">
	.st0{fill:#6F5499;}
	.st1{fill:#FFFFFF;}
</style>
<rect x="-501.1" y="147.1" class="st0" width="500" height="500"/>
<g>
	<path class="st1" d="M-170.1,301.2c7.5,10.4,11.2,22.8,11.2,37.2c0,14.9-3.8,26.9-11.3,35.9c-4.2,5.1-10.4,9.7-18.6,13.9
		c12.4,4.5,21.8,11.7,28.2,21.5c6.3,9.8,9.5,21.7,9.5,35.7c0,14.5-3.6,27.4-10.9,38.9c-4.6,7.6-10.4,14-17.3,19.2
		c-7.8,6-17,10-27.6,12.2c-10.6,2.2-22.1,3.3-34.5,3.3h-109.9V275.2h117.8C-203.5,275.6-182.5,284.3-170.1,301.2z M-302.5,317.6
		v53.8h59.3c10.6,0,19.2-2,25.8-6c6.6-4,9.9-11.2,9.9-21.4c0-11.4-4.4-18.9-13.1-22.5c-7.5-2.5-17.1-3.8-28.8-3.8H-302.5z
		 M-302.5,411.7v65h59.2c10.6,0,18.8-1.4,24.7-4.3c10.7-5.3,16-15.4,16-30.4c0-12.7-5.2-21.4-15.5-26.1c-5.8-2.6-13.9-4-24.4-4.1
		H-302.5z"/>
</g>
</svg>
