<?xml version="1.0" encoding="utf-8"?>
<!-- Generator: Adobe Illustrator 19.1.0, SVG Export Plug-In . SVG Version: 6.00 Build 0)  -->
<svg version="1.1" id="Layer_1" xmlns="http://www.w3.org/2000/svg" xmlns:xlink="http://www.w3.org/1999/xlink" x="0px" y="0px"
	 viewBox="0 0 500 500" style="enable-background:new 0 0 500 500;" xml:space="preserve">
<style type="text/css">
	.st0{fill:#7FBA00;}
	.st1{fill:#19486F;}
	.st2{fill:#FFFFFF;}
	.st3{enable-background:new    ;}
	.st4{font-family:'MyriadPro-Regular';}
	.st5{font-size:150px;}
</style>
<rect class="st0" width="500" height="500"/>
<g id="Layer_1_1_">
	<path class="st1" d="M253.4,249.2c-1.4,0.4-2.8,0.7-4.4,1.1c-0.8,0.2-1.7,0.4-2.5,0.5"/>
	<g>
		<g>
			<path class="st2" d="M249.8,125.2c19.7,0,36.6,1.6,50.5,4.1c29.7,5.3,45.6,14.4,45.6,20c0,5.6-15.8,14.8-45.6,20.1
				c-13.9,2.5-30.7,4.1-50.5,4.1c-62.1,0-96-16-96-24.1C153.8,141.1,187.7,125.2,249.8,125.2z"/>
		</g>
		<g>
			<g class="st3">
				<path class="st2" d="M345.9,149.3v12.2c0,0.2,0,0.3,0,0.5v-12.2C345.8,149.6,345.9,149.5,345.9,149.3"/>
				<path class="st2" d="M345.8,149.8V162c0,0.2-0.1,0.5-0.2,0.7v-12.2C345.7,150.3,345.8,150,345.8,149.8"/>
				<path class="st2" d="M345.6,150.5v12.2c-0.1,0.3-0.3,0.7-0.5,1v-12.2C345.4,151.2,345.5,150.8,345.6,150.5"/>
				<path class="st2" d="M345.1,151.5v12.2c-3.4,5.6-18.8,13.2-44.9,17.8c-13.9,2.5-30.7,4.1-50.5,4.1c-62.1,0-96-16-96-24.1v-12.2
					c0,8.2,33.9,24.1,96,24.1c19.7,0,36.6-1.6,50.5-4.1C326.4,164.7,341.7,157.1,345.1,151.5"/>
			</g>
		</g>
		<path class="st2" d="M345.7,332.8c0.2-0.6,0.3-1.1,0.3-1.6v19.7c0,0.2,0,0.5-0.1,0.7c-0.1,0.3-0.1,0.6-0.2,0.9c0,0,0,0,0,0
			c0,0,0,0.1-0.1,0.1c-0.1,0.4-0.3,0.7-0.5,1.1c-0.1,0.1-0.1,0.2-0.2,0.3c-0.2,0.3-0.4,0.5-0.6,0.8c-0.3,0.3-0.5,0.7-0.8,1
			c-0.3,0.3-0.5,0.6-0.8,0.8c-0.4,0.3-0.8,0.7-1.2,1c-0.4,0.3-0.7,0.6-1.1,0.9c-0.5,0.3-1,0.7-1.5,1c-0.4,0.3-0.9,0.6-1.4,0.9
			c-0.6,0.4-1.3,0.7-2,1.1c-0.5,0.3-1,0.6-1.6,0.8c-0.8,0.4-1.7,0.8-2.7,1.2c-0.5,0.2-1,0.5-1.5,0.7c-1.5,0.6-3.1,1.2-4.8,1.8
			c-0.6,0.2-1.2,0.4-1.8,0.6c-1.2,0.4-2.4,0.8-3.8,1.2c-0.8,0.2-1.6,0.4-2.5,0.7c-1.2,0.3-2.5,0.6-3.8,0.9c-0.9,0.2-1.9,0.4-2.9,0.6
			c-1.3,0.3-2.7,0.6-4.1,0.8c-1.1,0.2-2.2,0.4-3.3,0.6c-1.4,0.2-2.9,0.5-4.5,0.7c-1.2,0.2-2.3,0.3-3.5,0.5c-1.6,0.2-3.3,0.4-5,0.6
			c-1.2,0.1-2.5,0.3-3.7,0.4c-1.8,0.2-3.7,0.3-5.6,0.5c-1.3,0.1-2.5,0.2-3.8,0.3c-2.2,0.1-4.5,0.2-6.8,0.3c-1.2,0-2.3,0.1-3.5,0.1
			c-3.5,0.1-7.2,0.2-11,0.2c-35,0-61.4-4.5-78.6-9.9c-12.8-4.5-21.9-9.5-23-13.3v-19.7c1,3.6,9,8.1,20.4,12.4l-0.2-1.2
			c17.2,5.5,46.4,12.1,81.4,12.1c3.8,0,7.5-0.1,11-0.2c1.2,0,2.2-0.1,3.4-0.1c2.3-0.1,4.7-0.2,6.9-0.3c1.3-0.1,2.5-0.2,3.7-0.3
			c2-0.1,3.9-0.3,5.8-0.5c1.2-0.1,2.4-0.2,3.6-0.4c1.8-0.2,3.5-0.4,5.2-0.6c1.1-0.1,2.2-0.3,3.3-0.5c1.6-0.2,3.2-0.5,4.8-0.8
			l21.7-5.3c1.8-0.6,3.5-1.2,5-1.9l4.2-1.9c0.4-0.2,0.7-0.3,1-0.5c0.9-0.5,1.8-0.9,2.5-1.4c0.4-0.2,0.7-0.4,1-0.6
			c0.7-0.4,1.3-0.9,1.9-1.3c0.3-0.2,0.6-0.4,0.9-0.7c0.5-0.4,1-0.8,1.4-1.2c0.2-0.2,0.5-0.4,0.7-0.7c0.4-0.4,0.7-0.8,1-1.2
			c0.2-0.2,0.3-0.4,0.5-0.6L345.7,332.8z"/>
		<path class="st2" d="M299.1,188.9c-2.6,0.5-5.3,0.9-7.9,1.3c-1.4,0.2-2.7,0.4-4.1,0.6c-2.4,0.3-4.9,0.6-7.5,0.8
			c-1.6,0.1-3.3,0.3-4.9,0.4c-3.2,0.2-6.4,0.4-9.7,0.6l-1.6,0.1c-3.8,0.2-7.7,0.3-11.7,0.3c-0.8,0-1.6,0-2.5,0
			c-38.1,0-76.6-6.5-95.2-19v165.5c1,3.8,10.1,8.8,22.8,13.3c17.2,5.5,43.6,9.9,78.7,9.9c64,0,90.6-15.6,90.6-23.9l0.1-166.3
			C336.2,179.3,320,185.3,299.1,188.9z"/>
	</g>
</g>
<text transform="matrix(1 0 0 1 176 327)" class="st0 st4 st5">EF</text>
</svg>
