<?xml version="1.0" encoding="utf-8"?>
<!-- Generator: Adobe Illustrator 19.1.0, SVG Export Plug-In . SVG Version: 6.00 Build 0)  -->
<svg version="1.1" id="Layer_1" xmlns="http://www.w3.org/2000/svg" xmlns:xlink="http://www.w3.org/1999/xlink" x="0px" y="0px"
	 viewBox="-302.7 147.4 500 500" style="enable-background:new -302.7 147.4 500 500;" xml:space="preserve">
<style type="text/css">
	.st0{fill:#CF4646;}
	.st1{fill:#FFFFFF;stroke:#FFFFFF;stroke-miterlimit:10;}
</style>
<rect x="-302.7" y="147.4" class="st0" width="500" height="500"/>
<g>
	<path class="st1" d="M-130.2,400.8c-0.2,0.3-0.7,1.4-1.3,3.2c-0.6,1.8-1.3,4.1-2.2,6.8c-0.9,2.7-1.8,5.8-2.8,9.2
		c-1,3.4-2.1,6.9-3.1,10.4c-1.1,3.5-2.1,7-3.1,10.4c-1,3.4-1.9,6.5-2.6,9.2c-0.8,2.7-1.4,5-2,6.9c-0.5,1.9-0.8,2.9-1,3.3
		c-0.3,1.1-0.8,2.3-1.4,3.7c-0.6,1.3-1.4,2.6-2.3,3.8c-0.9,1.2-1.8,2.2-2.9,3c-1,0.8-2.1,1.2-3.2,1.2c-1.9,0-3.2-0.6-4-1.9
		c-0.8-1.2-1.3-3.5-1.3-6.8c0-0.5,0-1,0-1.4c0-0.5,0-1,0.1-1.5c0.1-1.1,0.5-3.2,1.3-6.2c0.8-3,1.8-6.4,2.9-10.2
		c1.1-3.8,2.3-7.7,3.6-11.8c1.3-4.1,2.5-7.7,3.5-11c-3.1,3.4-6.4,6.8-10,10.2c-3.6,3.4-7.3,6.4-11,9.2c-3.8,2.7-7.6,4.9-11.4,6.6
		c-3.8,1.7-7.5,2.6-11,2.6c-4.1,0-7.5-0.9-10.5-2.7c-2.9-1.8-5.3-4.1-7.3-7c-1.9-2.9-3.3-6.1-4.3-9.8c-0.9-3.6-1.4-7.3-1.4-10.9
		c0-0.5,0-0.9,0-1.3c0-0.4,0-0.8,0.1-1.2c0.3-6.6,1.3-13.3,2.8-20.3c1.5-6.9,3.5-13.8,6-20.7c2.5-6.9,5.4-13.6,8.6-20.1
		c3.3-6.5,6.8-12.7,10.7-18.6c3.8-5.8,7.9-11.2,12.3-16.1c4.3-4.9,8.8-9.1,13.4-12.7c4.6-3.5,9.2-6.3,13.8-8.3c4.7-2,9.3-3,13.8-3
		c5.3,0,10.4,1.4,15.3,4.3c4.9,2.9,9.5,7.5,13.8,14c1,1.4,1.6,2.9,1.9,4.4c0.3,1.5,0.4,2.9,0.4,4.2c0,3.1-0.7,5.5-2.2,7.3
		c-1.5,1.8-3.2,2.7-5.3,2.7c-1.9,0-3.6-1-5.2-2.9c-1.6-2-3.4-4.7-5.3-8.4c-1.9-3.3-3.9-5.7-6.1-7.1c-2.2-1.5-4.6-2.2-7.3-2.2
		c-4.1,0-8.4,1.7-13,5c-4.6,3.4-9.2,7.8-13.7,13.3c-4.5,5.5-8.8,11.8-13,18.9c-4.1,7.1-7.8,14.4-11,21.8c-3.2,7.4-5.7,14.8-7.6,22
		c-1.9,7.2-2.8,13.7-2.8,19.5c0,1.9,0.1,3.9,0.4,5.9c0.3,2,0.8,3.9,1.5,5.5c0.7,1.6,1.7,3,3,4.1c1.2,1.1,2.8,1.6,4.7,1.6
		c2.1,0,4.6-0.7,7.3-2.2c2.7-1.4,5.5-3.3,8.5-5.7c2.9-2.3,5.9-5,8.8-7.9c3-2.9,5.7-5.9,8.2-8.9c2.5-3,4.8-5.9,6.8-8.7
		c2-2.8,3.4-5.2,4.4-7.3l8.1-24.2c1-2.6,2.3-4.5,3.9-5.6c1.6-1.1,3.2-1.6,4.9-1.6c0.8,0,1.6,0.1,2.4,0.4c0.8,0.3,1.5,0.7,2.2,1.3
		c0.6,0.6,1.1,1.3,1.5,2.3c0.4,0.9,0.6,2,0.6,3.2c0,3.3-0.3,6.4-0.9,9.3c-0.6,2.9-1.3,5.7-2.2,8.4c-0.9,2.7-1.9,5.5-3,8.3
		C-128.1,394.8-129.1,397.7-130.2,400.8z"/>
	<path class="st1" d="M-20.7,420.9c-2.5,3.4-5.5,6.8-8.9,10c-3.4,3.3-6.9,6.2-10.5,8.7c-3.6,2.5-7.1,4.6-10.6,6.1
		c-3.5,1.5-6.6,2.3-9.4,2.3c-2.8,0-5-0.9-6.8-2.8c-1.7-1.9-2.6-5-2.6-9.5c0-3.2,0.5-6.8,1.4-11c-1.5,2.7-3.4,5.4-5.6,8.1
		c-2.3,2.7-4.8,5.2-7.7,7.5c-2.9,2.3-6.1,4.1-9.7,5.5c-3.6,1.4-7.5,2.1-11.7,2.1c-1.9,0-3.7-0.2-5.5-0.7c-1.8-0.5-3.3-1.3-4.6-2.5
		c-1.3-1.2-2.4-2.7-3.2-4.7c-0.8-2-1.2-4.4-1.2-7.4c0-0.1,0.1-1.1,0.3-3.1c0.2-2,1-5.2,2.2-9.6c1.2-4.4,3.2-10,5.8-16.9
		c2.6-6.9,6.3-15.3,11-25.2c1.2-2.6,2.6-4.5,4.2-5.6c1.6-1.1,3.3-1.7,5.2-1.7c0.8,0,1.6,0.1,2.5,0.4c0.9,0.2,1.7,0.6,2.4,1.1
		c0.8,0.5,1.4,1.2,1.8,2c0.5,0.8,0.7,1.7,0.7,2.7c0,0.7-0.1,1.3-0.3,2c-0.3,1.2-0.9,2.7-1.9,4.6c-1,1.9-2.1,4-3.3,6.5
		c-1.3,2.4-2.6,5.1-4,7.9c-1.4,2.8-2.7,5.7-4,8.7c-1.2,3-2.3,6.1-3.1,9.2c-0.9,3.1-1.4,6.2-1.5,9.1c0,1.2,0.3,2.4,0.9,3.4
		c0.6,1,1.5,1.5,2.9,1.5c3.8,0,7.4-1.2,10.8-3.7c3.4-2.5,6.6-5.5,9.5-9.2c2.9-3.7,5.5-7.6,7.9-11.8c2.3-4.2,4.3-8.1,5.9-11.6
		c1.1-2.3,2.1-4.8,2.9-7.5c0.8-2.7,1.7-5.1,2.7-7.4c1-2.3,2.1-4.1,3.4-5.7c1.3-1.5,2.9-2.3,4.8-2.3c2.1,0,3.7,0.8,4.9,2.4
		c1.2,1.6,1.8,3.5,1.8,5.7c0,1.2-0.4,2.9-1.2,5.1c-0.8,2.2-1.8,4.6-3,7.4c-1.2,2.8-2.5,5.7-3.9,8.9c-1.4,3.2-2.7,6.4-3.9,9.6
		c-1.2,3.3-2.2,6.4-3,9.6c-0.8,3.1-1.2,6-1.2,8.7c0,2.5,1.3,3.7,3.8,3.7c1.8,0,4-0.6,6.7-1.8c2.7-1.2,5.5-3,8.4-5.2
		c2.9-2.2,5.8-4.9,8.8-7.9c2.9-3,5.5-6.3,7.8-9.8L-20.7,420.9z"/>
	<path class="st1" d="M-18,415.8c-0.6,1.6-1.3,3.4-1.9,5.5c-0.6,2.1-0.9,4-0.9,5.6c0,1,0.2,1.9,0.5,2.5c0.3,0.6,1,0.9,2,0.9
		c1.2,0,2.7-0.4,4.6-1.3c1.8-0.9,3.8-2,5.9-3.4c2.1-1.4,4.3-3,6.6-4.8c2.3-1.8,4.6-3.7,6.8-5.7c2.3-2,4.4-3.9,6.5-5.9
		c2.1-2,3.9-3.8,5.5-5.4c0.5-0.5,1-0.8,1.6-1c0.6-0.2,1.2-0.3,1.6-0.3c1.2,0,2.1,0.5,2.9,1.4c0.8,1,1.1,2.2,1.1,3.8
		c0,1.4-0.4,3.1-1.2,4.8c-0.8,1.8-2.2,3.5-4.3,5.2c-3.7,4-7.4,7.9-11.2,11.5C4.5,433,0.7,436.2-3,439c-3.7,2.8-7.4,5-11.1,6.6
		c-3.7,1.6-7.3,2.5-10.7,2.5c-2.4,0-4.4-0.4-5.9-1.1c-1.6-0.8-2.9-1.8-3.8-3.1c-1-1.3-1.6-2.8-2-4.6c-0.4-1.8-0.6-3.7-0.6-5.7
		c0-3.4,0.4-6.8,1.3-10.3c0.8-3.5,1.8-6.8,3-9.7c2-5.4,4.1-10.7,6.2-15.9c2.1-5.3,4-10.1,5.7-14.5l26.3-66.3c1-2.7,2.4-4.6,4.2-5.7
		c1.8-1.1,3.5-1.6,5.3-1.6c1.8,0,3.4,0.6,4.9,1.7c1.5,1.2,2.2,3.1,2.2,5.7c0,1.2-0.2,2.5-0.7,3.9c-0.5,1.4-1.1,2.8-1.9,4.4
		c-1.4,3.2-3.2,7.2-5.2,11.8c-2,4.7-4.1,9.7-6.4,15.2c-2.3,5.5-4.6,11.2-7,17.1c-2.4,5.9-4.7,11.7-7,17.3c-2.3,5.6-4.4,11-6.4,16
		C-14.8,407.7-16.6,412.1-18,415.8z"/>
	<path class="st1" d="M105,397.2c0.8-0.5,1.6-1,2.3-1.3c0.7-0.3,1.4-0.5,2-0.5c1.3,0,2.2,0.6,2.9,1.7c0.6,1.1,1,2.5,1,4.2
		c0,1.8-0.4,3.6-1.2,5.5c-0.8,1.9-2,3.4-3.5,4.6c-6.2,5.5-11.7,10.5-16.6,15c-4.9,4.5-9.5,8.4-13.8,11.7c-4.3,3.3-8.5,5.8-12.6,7.6
		c-4.1,1.8-8.5,2.7-13.2,2.7c-4.4,0-7.8-1-10.2-2.9c-2.4-1.9-3.6-4.6-3.6-7.9c0-0.3,0-0.5,0-0.8c0-0.2,0-0.5,0.1-0.9
		c0.2-2.1,1.1-4.4,2.7-7.1c1.6-2.7,3.4-5.5,5.6-8.3c2.2-2.9,4.5-5.8,7-8.7c2.5-2.9,4.8-5.7,6.9-8.4c2.1-2.6,3.9-5.1,5.3-7.3
		c1.4-2.2,2.1-4,2.1-5.3c0-0.8-0.3-1.5-0.9-2c-0.6-0.5-1.5-0.7-2.9-0.7c-2.3,0-4.7,0.6-7.2,1.8c-2.5,1.2-4.9,2.8-7.3,4.8
		c-2.4,2-4.7,4.3-7,6.9c-2.3,2.6-4.4,5.3-6.4,8.1c-2,2.8-3.8,5.6-5.5,8.5c-1.6,2.8-3.1,5.5-4.2,7.9c-0.3,0.8-0.8,1.8-1.5,3.2
		c-0.6,1.4-1.3,2.9-2.1,4.6c-0.8,1.7-1.5,3.5-2.4,5.3c-0.8,1.8-1.6,3.5-2.3,5.1c-0.7,1.6-1.3,3-1.9,4.3c-0.6,1.3-0.9,2.1-1.2,2.6
		c-0.3,0.6-0.8,1.8-1.4,3.5c-0.7,1.7-1.4,3.7-2.3,6c-0.9,2.3-1.8,4.7-2.7,7.3c-1,2.5-1.9,4.9-2.7,7.2c-0.8,2.3-1.6,4.3-2.2,6
		c-0.6,1.7-1,2.9-1.2,3.5c-0.6,1.8-1.3,3.5-2,5c-0.8,1.6-1.7,3-2.7,4.2c-1,1.2-2.2,2.2-3.5,2.9c-1.3,0.7-2.8,1.1-4.4,1.1
		c-2.1,0-3.8-0.5-5.2-1.5c-1.4-1-2-2.9-2-5.7c0-1.4,0.2-2.8,0.5-4.2c0.3-1.4,0.8-2.9,1.3-4.3c0.5-1.4,1.1-2.8,1.6-4.1
		c0.6-1.3,1.1-2.6,1.5-3.9c3.1-6.9,6.3-13.7,9.6-20.6C0.9,446.6,4,439.8,7,433c3-6.8,5.7-13.4,8.3-19.9c2.5-6.5,4.7-12.8,6.3-18.7
		c0.5-1.2,1.1-3,1.9-5.2c0.8-2.3,1.7-4.5,2.8-6.7c1-2.2,2.2-4.1,3.5-5.7c1.3-1.6,2.7-2.4,4.2-2.4c2.3,0,4,0.5,5,1.6
		c1,1.1,1.6,2.6,1.6,4.7c0,0.4-0.1,1.1-0.2,2c-0.1,0.9-0.3,1.8-0.4,2.8c-0.2,1-0.4,1.9-0.6,2.8c-0.2,0.9-0.4,1.5-0.6,2
		c2.1-2.3,4.5-4.6,6.9-6.9c2.5-2.3,5.1-4.4,7.7-6.2c2.7-1.9,5.4-3.4,8.2-4.5c2.8-1.2,5.6-1.7,8.3-1.7c1.9,0,3.8,0.3,5.7,0.8
		c1.9,0.5,3.6,1.4,5,2.4c1.5,1.1,2.7,2.4,3.6,4c0.9,1.6,1.4,3.5,1.4,5.6c0,2.8-0.7,5.8-2.1,9c-1.4,3.2-3.2,6.4-5.3,9.6
		c-2.1,3.2-4.5,6.4-6.9,9.4c-2.5,3.1-4.8,5.8-7,8.3c-2.2,2.5-4,4.6-5.5,6.4c-1.5,1.7-2.2,2.9-2.3,3.5c0,0.8,0.3,1.5,0.8,2
		c0.5,0.5,1.4,0.8,2.6,0.8c1,0,2.4-0.5,4.3-1.6c1.9-1.1,4.6-3,8-5.7c3.4-2.7,7.8-6.3,13.1-10.9C90.8,409.8,97.3,404.1,105,397.2z"/>
</g>
</svg>
