<?xml version="1.0" encoding="utf-8"?>
<!-- Generator: Adobe Illustrator 19.1.0, SVG Export Plug-In . SVG Version: 6.00 Build 0)  -->
<svg version="1.1" id="Lager_1" xmlns="http://www.w3.org/2000/svg" xmlns:xlink="http://www.w3.org/1999/xlink" x="0px" y="0px"
	 viewBox="-241 333 128 128" style="enable-background:new -241 333 128 128;" xml:space="preserve">
<style type="text/css">
	.st0{fill:#F0DB4F;}
	.st1{fill:#323330;}
</style>
<g>
	<rect x="-241" y="333" class="st0" width="128" height="128"/>
	<g>
		<g>
			<circle class="st0" cx="-177" cy="397" r="64"/>
		</g>
	</g>
	<g id="Layer_1_1_">
		<g>
			<g>
				<path class="st1" d="M-197,372.2h11.1v31.4c0,14.1-6.8,19.1-17.5,19.1c-2.7,0-6-0.4-8.2-1.2l1.3-9.1c1.5,0.5,3.6,0.9,5.8,0.9
					c4.7,0,7.7-2.2,7.7-9.7L-197,372.2L-197,372.2z"/>
				<path class="st1" d="M-176,410.3c2.9,1.5,7.7,3.1,12.4,3.1c5.1,0,7.8-2.2,7.8-5.5c0-3.1-2.3-4.9-8.3-6.9
					c-8.2-2.9-13.7-7.6-13.7-14.8c0-8.3,7.2-14.7,18.8-14.7c5.6,0,9.7,1.2,12.7,2.6l-2.6,9c-1.9-0.9-5.5-2.3-10.2-2.3
					c-4.9,0-7.2,2.3-7.2,4.7c0,3.2,2.7,4.6,9.2,7c8.7,3.2,12.8,7.8,12.8,14.8c0,8.3-6.3,15.4-20,15.4c-5.6,0-11.3-1.5-14.1-3.1
					L-176,410.3z"/>
			</g>
		</g>
	</g>
</g>
</svg>
