<?xml version="1.0" encoding="utf-8"?>
<!-- Generator: Adobe Illustrator 19.1.0, SVG Export Plug-In . SVG Version: 6.00 Build 0)  -->
<svg version="1.1" id="Lager_1" xmlns="http://www.w3.org/2000/svg" xmlns:xlink="http://www.w3.org/1999/xlink" x="0px" y="0px"
	 viewBox="-241 333 128 128" style="enable-background:new -241 333 128 128;" xml:space="preserve">
<style type="text/css">
	.st0{fill:#0769AD;}
	.st1{fill:#78CFF5;}
</style>
<g>
	<rect x="-241" y="333" class="st0" width="128" height="128"/>
	<g>
		<g>
			<circle class="st0" cx="-177" cy="397" r="64"/>
		</g>
	</g>
	<g id="Layer_6">
		<g>
			<g>
				<path class="st1" d="M-211.8,379c-6.7,9.6-5.9,22.1-0.8,32.4c0.1,0.3,0.3,0.5,0.4,0.8c0.1,0.1,0.1,0.3,0.3,0.5
					c0,0.1,0.1,0.1,0.1,0.3c0.1,0.1,0.1,0.3,0.3,0.5c0.1,0.3,0.4,0.5,0.5,0.9c0.1,0.1,0.1,0.3,0.3,0.5c0.1,0.3,0.4,0.6,0.5,0.9
					c0.1,0.1,0.1,0.3,0.3,0.4c0.3,0.4,0.5,0.8,0.8,1.2l0,0l0.1,0.1c0.3,0.4,0.5,0.6,0.8,1c0.1,0.1,0.1,0.3,0.3,0.4
					c0.3,0.3,0.5,0.5,0.6,0.9c0.1,0.1,0.1,0.3,0.3,0.3c0.3,0.4,0.6,0.8,1,1.2l0,0l0,0c0.4,0.4,0.6,0.6,1,1c0.1,0.1,0.3,0.3,0.3,0.3
					c0.3,0.3,0.5,0.5,0.8,0.8c0.1,0.1,0.3,0.3,0.4,0.3c0.4,0.4,0.8,0.6,1,1l0,0l0.1,0.1c0.4,0.3,0.6,0.5,1,0.8
					c0.1,0.1,0.3,0.3,0.4,0.4c0.3,0.3,0.5,0.4,0.8,0.6c0.1,0.1,0.3,0.3,0.4,0.4c0.3,0.3,0.6,0.4,0.9,0.6c0.1,0.1,0.3,0.1,0.4,0.3
					c0,0,0,0,0.1,0.1c0.3,0.3,0.6,0.4,0.9,0.6c0.1,0.1,0.3,0.1,0.4,0.3c0.5,0.3,0.9,0.5,1.4,0.9c0.1,0.1,0.3,0.1,0.4,0.3
					c0.4,0.3,0.6,0.4,1,0.6c0.1,0.1,0.4,0.3,0.5,0.3c0.3,0.1,0.5,0.3,0.8,0.4c0,0,0.1,0,0.1,0.1c0.1,0,0.3,0.1,0.3,0.1
					c0.4,0.1,0.8,0.4,1.2,0.5c0.1,0,0.1,0.1,0.3,0.1c0.5,0.3,0.9,0.4,1.4,0.5c0.1,0,0.3,0.1,0.4,0.1c0.4,0.1,0.9,0.4,1.3,0.5h0.1
					c0.5,0.1,1,0.4,1.4,0.5c0.1,0,0.3,0.1,0.4,0.1c0.5,0.1,1,0.4,1.5,0.4c32.4,5.9,41.9-19.5,41.9-19.5c-7.9,10.4-22,13.1-35.2,10
					c-0.5-0.1-1-0.3-1.5-0.4c-0.1,0-0.3-0.1-0.4-0.1c-0.5-0.1-0.9-0.3-1.4-0.5c-0.1,0-0.1,0-0.3-0.1c-0.4-0.1-0.9-0.3-1.3-0.5
					c-0.1,0-0.3-0.1-0.4-0.1c-0.5-0.1-0.9-0.4-1.4-0.5c-0.1,0-0.1-0.1-0.3-0.1c-0.4-0.1-0.8-0.4-1.2-0.5c-0.1,0-0.3-0.1-0.4-0.1
					c-0.3-0.1-0.6-0.3-0.9-0.5c-0.3-0.1-0.4-0.3-0.6-0.3c-0.4-0.3-0.8-0.4-1-0.6c-0.1-0.1-0.3-0.1-0.4-0.3c-0.5-0.3-0.9-0.5-1.4-0.9
					c-0.1-0.1-0.3-0.1-0.4-0.3c-0.4-0.3-0.6-0.4-1-0.6c-0.1-0.1-0.3-0.1-0.3-0.3c-0.3-0.3-0.6-0.4-0.9-0.6c-0.1-0.1-0.3-0.3-0.4-0.3
					c-0.3-0.3-0.5-0.4-0.9-0.6c-0.1-0.1-0.3-0.3-0.4-0.3c-0.4-0.3-0.6-0.6-1-0.9c0,0-0.1,0-0.1-0.1c-0.4-0.4-0.8-0.6-1.2-1
					c-0.1-0.1-0.3-0.3-0.3-0.3c-0.3-0.3-0.5-0.5-0.8-0.8c-0.1-0.1-0.3-0.3-0.3-0.3c-0.4-0.4-0.6-0.6-1-1l0,0c-0.4-0.4-0.6-0.8-1-1.2
					c-0.1-0.1-0.1-0.3-0.3-0.3c-0.3-0.3-0.5-0.6-0.8-0.9c-0.1-0.1-0.1-0.3-0.3-0.4c-0.3-0.4-0.5-0.8-0.8-1.2
					c-7.4-10.1-10-23.9-4.1-35.3"/>
				<path class="st1" d="M-191.1,370.8c-4.9,7-4.6,16.3-0.8,23.7c0.6,1.3,1.4,2.4,2.2,3.6c0.8,1,1.5,2.3,2.4,3.1
					c0.4,0.4,0.8,0.8,1.2,1.2c0.1,0.1,0.1,0.1,0.3,0.3c0.4,0.4,0.8,0.6,1.2,1l0,0l0,0c0.4,0.4,0.9,0.8,1.3,1
					c0.1,0.1,0.3,0.1,0.3,0.3c0.4,0.4,0.9,0.6,1.4,1l0,0c0.3,0.1,0.4,0.3,0.6,0.4c0.1,0.1,0.3,0.1,0.3,0.3c0.4,0.3,0.6,0.4,1,0.6
					c0,0,0.1,0,0.1,0.1c0.3,0.1,0.6,0.4,0.9,0.5c0.1,0,0.3,0.1,0.3,0.1c0.3,0.1,0.4,0.3,0.6,0.4c0,0,0,0,0.1,0
					c0.4,0.3,0.9,0.4,1.3,0.6c0.1,0,0.1,0.1,0.3,0.1c0.4,0.1,0.8,0.3,1,0.4c0.1,0,0.3,0.1,0.5,0.1c0.4,0.1,0.6,0.3,1,0.4
					c0.1,0,0.3,0.1,0.4,0.1c0.5,0.1,0.9,0.4,1.4,0.4c25.1,4.1,30.8-15.1,30.8-15.1c-5.2,7.6-15.4,11.1-26.1,8.3
					c-0.5-0.1-0.9-0.3-1.4-0.4c-0.1,0-0.3-0.1-0.4-0.1c-0.4-0.1-0.6-0.3-1-0.4c-0.1,0-0.3-0.1-0.4-0.1c-0.4-0.1-0.8-0.3-1-0.4
					c-0.1,0-0.3-0.1-0.3-0.1c-0.4-0.3-0.9-0.4-1.3-0.6c-0.3-0.1-0.4-0.3-0.6-0.4c-0.1-0.1-0.3-0.1-0.4-0.3c-0.3-0.1-0.5-0.3-0.8-0.5
					c-0.1,0-0.1-0.1-0.3-0.1c-0.4-0.3-0.6-0.4-1-0.6c-0.1-0.1-0.3-0.1-0.3-0.3c-0.3-0.1-0.4-0.3-0.6-0.4c-0.5-0.3-0.9-0.6-1.4-1
					c-0.1-0.1-0.3-0.1-0.3-0.3c-4.7-3.7-8.4-8.8-10.2-14.6c-1.9-6-1.4-12.7,1.8-18.2"/>
				<path class="st1" d="M-173.5,364.7c-2.8,4.2-3.2,9.5-1.2,14.1c2,5,6.4,8.8,11.4,10.6c0.3,0.1,0.4,0.1,0.6,0.3
					c0.1,0,0.1,0,0.3,0.1c0.3,0.1,0.6,0.3,0.9,0.3c13.8,2.7,17.5-7,18.6-8.6c-3.3,4.7-8.8,5.9-15.6,4.2c-0.5-0.1-1.2-0.4-1.7-0.5
					c-0.6-0.3-1.3-0.5-1.9-0.8c-1.2-0.6-2.3-1.3-3.5-2c-6-4.6-9.9-13.3-5.9-20.5"/>
			</g>
		</g>
	</g>
</g>
</svg>
