<?xml version="1.0" encoding="utf-8"?>
<!-- Generator: Adobe Illustrator 19.2.0, SVG Export Plug-In . SVG Version: 6.00 Build 0)  -->
<svg version="1.1"
	 id="svg-001" xmlns:cc="http://creativecommons.org/ns#" xmlns:dc="http://purl.org/dc/elements/1.1/" xmlns:rdf="http://www.w3.org/1999/02/22-rdf-syntax-ns#" xmlns:svg="http://www.w3.org/2000/svg"
	 xmlns="http://www.w3.org/2000/svg" xmlns:xlink="http://www.w3.org/1999/xlink" x="0px" y="0px" viewBox="0 0 128 128"
	 style="enable-background:new 0 0 128 128;" xml:space="preserve">
<style type="text/css">
	.st0{fill:#B5B5B5;}
	.st1{fill:url(#path7508_1_);}
	.st2{fill:url(#path7510_1_);}
</style>
<rect class="st0" width="128" height="128"/>
<title  id="title-001">JSON logo</title>
<g>
	
		<linearGradient id="path7508_1_" gradientUnits="userSpaceOnUse" x1="-659.2477" y1="-259.4987" x2="-593.0277" y2="-325.7281" gradientTransform="matrix(0.9988 0 0 -0.9987 688.5797 -227.3719)">
		<stop  offset="0" style="stop-color:#000000"/>
		<stop  offset="1" style="stop-color:#FFFFFF"/>
	</linearGradient>
	<path id="path7508" class="st1" d="M63.9,86.9C84.7,115.3,105,79,105,57.3c0-25.8-26.1-40.1-41.1-40.1c-24,0-46.8,19.8-46.8,47
		c0,30.2,26.2,46.9,46.8,46.9c-4.7-0.7-20.2-4-20.5-39.9c-0.1-24.3,7.9-34,20.4-29.7c0.3,0.1,13.8,5.4,13.8,22.9
		C77.7,81.6,63.9,86.9,63.9,86.9z"/>
	
		<linearGradient id="path7510_1_" gradientUnits="userSpaceOnUse" x1="-590.0295" y1="-322.7299" x2="-656.2495" y2="-256.5006" gradientTransform="matrix(0.9988 0 0 -0.9987 688.5797 -227.3719)">
		<stop  offset="0" style="stop-color:#000000"/>
		<stop  offset="1" style="stop-color:#FFFFFF"/>
	</linearGradient>
	<path id="path7510" class="st2" d="M63.9,41.3c-13.7-4.7-30.5,6.6-30.5,29.2c0,37,27.4,40.4,30.7,40.4c24,0,46.8-19.8,46.8-47
		c0-30.2-26.2-46.9-46.8-46.9c5.7-0.8,30.8,6.2,30.8,40.5C94.9,80,76.2,92.2,64,87c-0.3-0.1-13.8-5.4-13.8-22.9
		C50.2,46.8,63.9,41.3,63.9,41.3z"/>
</g>
</svg>
