<?xml version="1.0" encoding="utf-8"?>
<!-- Generator: Adobe Illustrator 21.0.2, SVG Export Plug-In . SVG Version: 6.00 Build 0)  -->
<svg version="1.1" id="Layer_1" xmlns="http://www.w3.org/2000/svg" xmlns:xlink="http://www.w3.org/1999/xlink" x="0px" y="0px"
	 viewBox="0 0 256 256" style="enable-background:new 0 0 256 256;" xml:space="preserve">
<style type="text/css">
	.st0{fill:#00618A;}
	.st1{fill:#E48E00;}
</style>
<rect class="st0" width="256" height="256"/>
<g>
	<g transform="translate(241.59, -4.64258)">
		<path class="st1" d="M-50.5,172.9c-8.2-0.2-14.4,0.5-19.8,2.8c-1.6,0.6-4,0.6-4.1,2.6c0.8,0.8,1,2.2,1.7,3.2
			c1.3,2.1,3.4,4.9,5.4,6.3c2.1,1.6,4.3,3.3,6.5,4.7c4,2.5,8.5,3.8,12.3,6.3c2.3,1.4,4.6,3.2,6.7,4.9c1.1,0.8,1.9,2.1,3.2,2.6
			c0-0.1,0-0.1,0-0.2c-0.7-1-1-2.3-1.7-3.2c-1-1-2-2-3-3c-3-4-6.7-7.4-10.7-10.2c-3.2-2.3-10.2-5.4-11.6-9.1
			c-0.1-0.1-0.1-0.1-0.2-0.2c2.3-0.2,4.9-1,7-1.7c3.5-1,6.6-0.7,10.2-1.7c1.7-0.4,3.2-1,4.9-1.3c0-0.3,0-0.6,0-1
			c-1.9-1.9-3.1-4.4-5.1-6c-5.2-4.4-10.8-8.9-16.8-12.5c-3.2-2.1-7.3-3.4-10.7-5.1c-1.1-0.6-3.2-1-4-1.9c-1.7-2.3-2.8-5.2-4.1-7.9
			c-2.9-5.6-5.8-11.8-8.4-17.7c-1.7-4-2.9-8-5.1-11.6c-10.8-17.6-22.1-28.1-39.7-38.4c-3.7-2.2-8.3-3-13.1-4.1
			c-2.6-0.1-5.1-0.3-7.7-0.4c-1.6-0.6-3.2-2.6-4.7-3.5c-5.8-3.7-20.8-11.7-25.1-1.1c-2.7,6.6,4,13.1,6.5,16.5c1.7,2.4,4,5,5.1,7.7
			c0.8,1.7,1,3.5,1.7,5.4c1.7,4.6,3.2,9.5,5.4,13.7c1.1,2.2,2.3,4.4,3.7,6.3c0.8,1.1,2.3,1.7,2.6,3.5c-1.4,2-1.6,5.2-2.3,7.7
			c-3.6,11.5-2.3,25.7,3,34.2c1.7,2.6,5.5,8.2,10.7,6c4.6-1.9,3.5-7.7,4.9-12.7c0.3-1.1,0.1-2,0.7-2.8c0,0.1,0,0.1,0,0.2
			c1.3,2.8,2.8,5.6,4.1,8.4c3.1,5,8.6,10.1,13.2,13.7c2.4,1.9,4.4,5,7.4,6c0-0.1,0-0.1,0-0.2c-0.1,0-0.2,0-0.2,0
			c-0.6-1-1.6-1.3-2.3-2.1c-1.9-1.7-3.8-4-5.4-6c-4.3-5.8-8-12-11.4-18.6c-1.7-3.1-3-6.6-4.4-9.7c-0.5-1.3-0.5-3.1-1.7-3.7
			c-1.6,2.4-3.7,4.3-4.9,7c-1.9,4.4-2.1,9.7-2.8,15.3c-0.4,0.1-0.2,0-0.5,0.2c-3.2-0.8-4.4-4.1-5.6-7c-3-7.3-3.6-18.8-1-27.2
			c0.7-2.2,3.8-8.9,2.6-10.8c-0.6-2-2.6-3.1-3.7-4.7c-1.3-1.9-2.8-4.4-3.7-6.5c-2.5-5.6-3.6-12-6.3-17.7c-1.3-2.7-3.4-5.5-5.1-7.9
			c-2-2.7-4-4.7-5.6-7.9c-0.5-1.1-1.3-3-0.4-4.1c0.2-0.8,0.6-1.1,1.3-1.3c1.3-1,5.1,0.3,6.5,1c3.7,1.6,6.8,3,10,5.1
			c1.6,1,3,2.9,4.9,3.5c0.7,0,1.3,0,2.1,0c3.3,0.7,7,0.2,10,1.1c5.4,1.7,10.2,4.3,14.6,7c13.4,8.5,24.3,20.5,31.9,34.9
			c1.3,2.3,1.7,4.6,2.8,7c2.2,5,4.9,10,7,14.9c2.2,4.9,4.3,9.7,7.3,13.7c1.6,2.1,7.7,3.2,10.4,4.4c2,0.8,5.2,1.7,7,2.8
			c3.5,2.1,7,4.7,10.2,7C-55.9,168.2-50.9,170.7-50.5,172.9z"/>
	</g>
	<g transform="translate(272.504, 24.8027)">
		<path class="st1" d="M-185.4,54.8c-1.7,0-2.9,0.2-4.1,0.4c0,0.1,0,0.2,0,0.2c0.1,0,0.1,0,0.2,0c0.8,1.7,2.3,2.8,3.2,4.1
			c0.7,1.7,1.6,3.2,2.3,4.9c0.1-0.1,0.1-0.1,0.2-0.2c1.4-1,2.1-2.6,2.1-5.1c-0.6-0.6-0.6-1.3-1.1-2.1
			C-183.1,56.2-184.5,55.7-185.4,54.8z"/>
	</g>
</g>
</svg>
