<?xml version="1.0" encoding="utf-8"?>
<!-- Generator: Adobe Illustrator 21.0.2, SVG Export Plug-In . SVG Version: 6.00 Build 0)  -->
<svg version="1.1" id="Lager_1" xmlns="http://www.w3.org/2000/svg" xmlns:xlink="http://www.w3.org/1999/xlink" x="0px" y="0px"
	 viewBox="0 0 128 128" style="enable-background:new 0 0 128 128;" xml:space="preserve">
<style type="text/css">
	.st0{fill:#36447F;}
	.st1{fill:#FFFFFF;}
</style>
<g>
	<rect class="st0" width="128" height="128"/>
	<g id="Layer_2_1_">
		<g>
			<g>
				<path class="st1" d="M35.5,54.7c2.9,0,4.9,0.5,5.9,1.7c1,1,1.2,2.9,0.6,5.5c-0.5,2.7-1.5,4.7-3.1,5.9c-1.5,1.2-3.8,1.8-6.9,1.8
					h-4.7l2.8-14.8C30.1,54.7,35.5,54.7,35.5,54.7z M16.6,84.5h7.7l1.8-9.5h6.7c2.9,0,5.2-0.3,7.2-0.9c1.9-0.6,3.6-1.7,5.1-3.1
					c1.3-1.2,2.3-2.6,3.2-4c0.8-1.4,1.4-3.1,1.7-4.7c0.8-4.2,0.3-7.4-1.8-9.9c-2-2.3-5.2-3.5-9.7-3.5H23.7L16.6,84.5z"/>
				<path class="st1" d="M57.7,39.7h7.7l-1.8,9.5h6.8c4.2,0,7.3,0.8,8.8,2.3c1.7,1.5,2.2,4,1.4,7.3l-3.2,16.5h-7.8l3.1-15.6
					c0.4-1.8,0.3-2.9-0.4-3.6c-0.6-0.6-1.9-1-3.8-1h-6.1l-4,20.2h-7.7L57.7,39.7z"/>
				<path class="st1" d="M97.8,54.7c2.9,0,4.9,0.5,5.9,1.7c1,1,1.2,2.9,0.6,5.5c-0.5,2.7-1.5,4.7-3.1,5.9s-3.8,1.8-6.9,1.8h-4.7
					l2.8-14.8C92.4,54.7,97.8,54.7,97.8,54.7z M79,84.5h7.7l1.8-9.5h6.7c2.9,0,5.2-0.3,7.2-0.9c1.9-0.6,3.6-1.7,5.1-3.1
					c1.3-1.2,2.3-2.6,3.2-4c0.8-1.4,1.4-3.1,1.7-4.7c0.8-4.2,0.3-7.4-1.8-9.9c-2-2.3-5.2-3.5-9.7-3.5H86.1L79,84.5z"/>
			</g>
		</g>
	</g>
</g>
</svg>
