<?xml version="1.0" encoding="utf-8"?>
<!-- Generator: Adobe Illustrator 19.2.0, SVG Export Plug-In . SVG Version: 6.00 Build 0)  -->
<svg version="1.1" id="Layer_1" xmlns="http://www.w3.org/2000/svg" xmlns:xlink="http://www.w3.org/1999/xlink" x="0px" y="0px"
	 viewBox="0 0 500 500" style="enable-background:new 0 0 500 500;" xml:space="preserve">
<style type="text/css">
	.st0{fill:#2196F3;}
	.st1{fill:#FFFFFF;}
</style>
<rect class="st0" width="500" height="500"/>
<g>
	<path class="st1" d="M239.4,250.1c0,15.7-1.6,30.1-4.7,43.1c-3.1,13-7.9,24.1-14.3,33.4c-6.4,9.3-14.4,16.5-23.9,21.6
		c-9.5,5.1-20.7,7.6-33.5,7.6c-11,0-21-2.1-30.1-6.2c-9-4.1-16.7-10.5-23.1-19.1c-6.4-8.6-11.3-19.6-14.8-32.9
		c-3.5-13.3-5.2-29.1-5.2-47.4c0-15.7,1.6-30.1,4.8-43.1c3.2-13,8-24.2,14.3-33.5c6.4-9.3,14.3-16.5,23.9-21.6
		c9.6-5.1,20.7-7.6,33.4-7.6c11,0,21,2.1,30.1,6.2c9,4.1,16.7,10.5,23.1,19.2c6.4,8.7,11.3,19.7,14.8,33
		C237.6,216,239.4,231.8,239.4,250.1z M117.5,249.1c0,3.3,0,6.5,0.1,9.8c0.1,3.3,0.2,6.4,0.6,9.4l87.1-64.4
		c-1.6-5.4-3.6-10.2-6-14.6c-2.4-4.4-5.3-8.2-8.7-11.4c-3.4-3.2-7.2-5.7-11.5-7.5c-4.3-1.8-9.1-2.7-14.5-2.7
		c-7.1,0-13.6,1.7-19.4,5.2c-5.8,3.5-10.8,8.6-14.9,15.5c-4.1,6.9-7.2,15.4-9.4,25.5S117.5,235.8,117.5,249.1z M211.7,251
		c0-3.6-0.1-7.1-0.4-10.6c-0.3-3.5-0.6-7-0.9-10.3l-87.1,64.7c1.6,5.5,3.6,10.5,6,15.1c2.4,4.6,5.3,8.6,8.7,11.9
		c3.4,3.3,7.3,5.9,11.7,7.7s9.3,2.8,14.9,2.8c7.1,0,13.6-1.7,19.4-5.2c5.8-3.5,10.8-8.6,14.9-15.4c4.1-6.8,7.2-15.3,9.4-25.4
		C210.6,276.1,211.7,264.4,211.7,251z"/>
	<path class="st1" d="M410.2,352.9H280.9v-25.5h52.9V177.2l-49.3,26.8l-10.1-23.3l65.5-34.5h24.2v181.2h46V352.9z"/>
</g>
</svg>
