<?xml version="1.0" encoding="utf-8"?>
<!-- Generator: Adobe Illustrator 19.2.0, SVG Export Plug-In . SVG Version: 6.00 Build 0)  -->
<svg version="1.1" id="Layer_1" xmlns="http://www.w3.org/2000/svg" xmlns:xlink="http://www.w3.org/1999/xlink" x="0px" y="0px"
	 viewBox="0 0 512 512" style="enable-background:new 0 0 512 512;" xml:space="preserve">
<style type="text/css">
	.st0{fill:#019BC7;}
	.st1{fill:#FFFFFF;}
</style>
<rect class="st0" width="512" height="512"/>
<g>
	<path class="st1" d="M112.2,213.3L79.1,292h-8l33.2-78.7H112.2z"/>
	<path class="st1" d="M170.7,281.6H161l-9.4-20.2c-0.7-1.5-1.4-2.8-2.2-3.8c-0.7-1-1.5-1.8-2.4-2.4c-0.9-0.6-1.8-1-2.8-1.3
		c-1-0.3-2.2-0.4-3.4-0.4h-4.1v28.1h-8.6v-63.2h16.9c3.7,0,6.8,0.4,9.5,1.2c2.6,0.8,4.8,1.9,6.5,3.4c1.7,1.5,2.9,3.2,3.7,5.2
		c0.8,2,1.2,4.3,1.2,6.8c0,2-0.3,3.8-0.9,5.6c-0.6,1.8-1.4,3.4-2.6,4.8c-1.1,1.4-2.6,2.7-4.3,3.7c-1.7,1-3.6,1.8-5.8,2.3
		c1.8,0.6,3.3,1.7,4.5,3.2c1.2,1.5,2.5,3.6,3.8,6.1L170.7,281.6z M157,235.8c0-3.4-1.1-5.9-3.2-7.6c-2.1-1.7-5.1-2.5-8.9-2.5h-8.1
		v20.9h7c2,0,3.9-0.2,5.5-0.7c1.6-0.5,3-1.2,4.2-2.1c1.1-0.9,2-2,2.7-3.4C156.6,239,157,237.5,157,235.8z"/>
	<path class="st1" d="M223.1,254.8c0,1.2,0,2.2,0,3c0,0.8-0.1,1.6-0.1,2.3h-34.1c0,5,1.4,8.8,4.2,11.4c2.8,2.7,6.8,4,12,4
		c1.4,0,2.8-0.1,4.3-0.2c1.4-0.1,2.8-0.3,4.1-0.5c1.3-0.2,2.6-0.4,3.8-0.7c1.2-0.2,2.3-0.5,3.4-0.8v6.9c-2.3,0.6-4.9,1.2-7.8,1.6
		c-2.9,0.4-5.9,0.6-9,0.6c-4.2,0-7.7-0.6-10.7-1.7c-3-1.1-5.5-2.8-7.4-4.9c-1.9-2.1-3.3-4.8-4.3-7.9c-0.9-3.1-1.4-6.6-1.4-10.6
		c0-3.4,0.5-6.6,1.5-9.7c1-3,2.4-5.7,4.3-8c1.9-2.3,4.2-4.1,6.9-5.5c2.7-1.4,5.8-2,9.3-2c3.4,0,6.4,0.5,9,1.6
		c2.6,1.1,4.8,2.6,6.6,4.5c1.8,2,3.1,4.3,4.1,7.1C222.6,248.2,223.1,251.3,223.1,254.8z M214.3,253.5c0.1-2.2-0.1-4.1-0.6-5.9
		c-0.5-1.8-1.3-3.3-2.4-4.6c-1.1-1.3-2.4-2.3-4-3c-1.6-0.7-3.5-1.1-5.6-1.1c-1.8,0-3.5,0.4-5,1.1c-1.5,0.7-2.8,1.7-3.9,3
		c-1.1,1.3-2,2.8-2.7,4.6c-0.7,1.8-1.1,3.8-1.3,5.9H214.3z"/>
	<path class="st1" d="M271.5,239.9c0.9,1.1,1.6,2.4,2.1,3.9c0.5,1.5,0.7,3.1,0.7,4.9c0,2.5-0.5,4.8-1.4,6.9
		c-0.9,2.1-2.2,3.9-3.9,5.3c-1.7,1.5-3.7,2.6-6,3.5c-2.3,0.8-4.9,1.2-7.7,1.2c-2,0-3.9-0.2-5.7-0.7c-1.8-0.4-3.2-1-4.2-1.6
		c-0.6,0.9-1.1,1.8-1.5,2.6c-0.4,0.8-0.6,1.7-0.6,2.7c0,1.2,0.6,2.2,1.8,3c1.2,0.8,2.7,1.2,4.7,1.3l12.8,0.5
		c2.4,0.1,4.6,0.4,6.7,0.9c2,0.5,3.8,1.3,5.3,2.4c1.5,1,2.6,2.3,3.4,3.8c0.8,1.5,1.2,3.3,1.2,5.3c0,2.2-0.5,4.2-1.4,6.1
		s-2.4,3.6-4.3,5.1c-2,1.5-4.4,2.6-7.4,3.5c-3,0.9-6.6,1.3-10.7,1.3c-3.9,0-7.3-0.3-10-0.9c-2.8-0.6-5-1.5-6.8-2.6
		c-1.8-1.1-3.1-2.4-3.9-4c-0.8-1.5-1.2-3.2-1.2-5.1c0-2.4,0.5-4.4,1.6-6.2c1.1-1.8,2.8-3.5,5.1-5.1c-0.8-0.4-1.6-0.9-2.2-1.5
		c-0.6-0.6-1.1-1.2-1.5-1.9s-0.7-1.4-0.9-2.2s-0.3-1.5-0.3-2.3c0-2.1,0.5-4,1.5-5.8c1-1.7,2.2-3.4,3.5-4.9c-0.6-0.7-1.2-1.5-1.6-2.2
		c-0.5-0.7-0.9-1.5-1.2-2.3c-0.3-0.8-0.6-1.7-0.8-2.7c-0.2-0.9-0.3-2-0.3-3.3c0-2.5,0.5-4.8,1.4-6.9c0.9-2.1,2.2-3.9,3.9-5.3
		c1.7-1.5,3.7-2.6,6-3.5c2.3-0.8,4.9-1.2,7.8-1.2c1.2,0,2.3,0.1,3.4,0.2c1.1,0.2,2.1,0.4,2.9,0.6h17.6v6.9H271.5z M242.3,288.6
		c0,2.3,1.2,4,3.6,5c2.4,1,5.7,1.6,10,1.6c2.7,0,4.9-0.2,6.7-0.7c1.8-0.5,3.3-1.1,4.4-1.9c1.1-0.8,1.9-1.7,2.4-2.7
		c0.5-1,0.7-2.1,0.7-3.1c0-2-0.8-3.4-2.4-4.4c-1.6-0.9-4.1-1.5-7.4-1.6l-12.7-0.4c-1.1,0.7-1.9,1.4-2.6,2.1
		c-0.7,0.7-1.2,1.4-1.6,2.1c-0.4,0.7-0.7,1.4-0.8,2.1C242.4,287.2,242.3,287.9,242.3,288.6z M244.8,248.9c0,1.5,0.3,3,0.8,4.3
		c0.5,1.3,1.2,2.4,2.2,3.3c0.9,0.9,2,1.6,3.3,2.1c1.3,0.5,2.7,0.7,4.2,0.7c1.7,0,3.2-0.3,4.5-0.8c1.3-0.6,2.4-1.3,3.3-2.3
		c0.9-1,1.6-2.1,2-3.3c0.5-1.3,0.7-2.6,0.7-3.9c0-1.5-0.3-3-0.8-4.3c-0.5-1.3-1.2-2.4-2.2-3.3c-0.9-0.9-2-1.6-3.3-2.1
		c-1.3-0.5-2.7-0.7-4.2-0.7c-1.7,0-3.2,0.3-4.5,0.9c-1.3,0.6-2.4,1.3-3.3,2.3c-0.9,1-1.6,2.1-2,3.3
		C245.1,246.2,244.8,247.6,244.8,248.9z"/>
	<path class="st1" d="M328.8,281.6h-35.9v-63.2h35.9v7.3h-27.3v19.6h26.2v7.3h-26.2v21.8h27.3V281.6z"/>
	<path class="st1" d="M389.1,281.6H378l-13.1-18.5l-13,18.5H341l18.8-24.4l-17.9-24.2h10.8l12.8,18.7l12.5-18.7h10.4l-18.2,24.4
		L389.1,281.6z"/>
	<path class="st1" d="M438.8,213.3L405.7,292h-8l33.2-78.7H438.8z"/>
</g>
<g>
</g>
<g>
</g>
<g>
</g>
<g>
</g>
<g>
</g>
<g>
</g>
<g>
</g>
<g>
</g>
<g>
</g>
<g>
</g>
<g>
</g>
<g>
</g>
<g>
</g>
<g>
</g>
<g>
</g>
</svg>
