<?xml version="1.0" encoding="utf-8"?>
<!-- Generator: Adobe Illustrator 19.1.0, SVG Export Plug-In . SVG Version: 6.00 Build 0)  -->
<svg version="1.1" id="Layer_1" xmlns="http://www.w3.org/2000/svg" xmlns:xlink="http://www.w3.org/1999/xlink" x="0px" y="0px"
	 viewBox="-43 147 500 500" style="enable-background:new -43 147 500 500;" xml:space="preserve">
<style type="text/css">
	.st0{fill:#CF649A;}
	.st1{fill:#FFFFFF;}
</style>
<rect x="-43" y="147" class="st0" width="500" height="500"/>
<path class="st1" d="M351.3,419.3c-14,0.1-26.1,3.4-36.3,8.4c-3.8-7.4-7.5-13.9-8.1-18.8c-0.7-5.6-1.6-9.1-0.7-15.8s4.8-16.3,4.8-17
	c-0.1-0.7-0.9-4.1-8.9-4.2c-8-0.1-15,1.6-15.8,3.7s-2.3,7-3.4,12c-1.4,7.3-16.1,33.4-24.5,47c-2.7-5.3-5.1-10-5.5-13.8
	c-0.7-5.6-1.6-9.1-0.7-15.8s4.8-16.3,4.8-17c-0.1-0.7-0.9-4.1-8.9-4.2c-8-0.1-15,1.6-15.8,3.7c-0.8,2.1-1.6,7.1-3.4,12
	c-1.6,4.8-21.2,48.3-26.3,59.6c-2.6,5.8-4.8,10.4-6.5,13.5c-1.6,3.1-0.1,0.2-0.2,0.5c-1.4,2.7-2.2,4.1-2.2,4.1v0.1
	c-1.1,2-2.3,3.8-2.8,3.8c-0.4,0-1.2-5.2,0.2-12.4c2.9-15.1,9.9-38.6,9.8-39.5c0-0.4,1.3-4.5-4.5-6.6c-5.7-2.1-7.7,1.4-8.2,1.4
	s-0.9,1.3-0.9,1.3s6.3-26.5-12.1-26.5c-11.6,0-27.5,12.6-35.4,24.1c-5,2.7-15.6,8.5-26.9,14.7c-4.3,2.3-8.8,4.8-13,7.1l-0.9-0.9
	c-22.3-23.8-63.7-40.7-62-72.7c0.6-11.6,4.7-42.3,79.4-79.5c61.2-30.5,110.2-22.1,118.7-3.5c12.1,26.6-26.2,75.9-89.8,83.1
	c-24.2,2.7-37-6.6-40.2-10.2c-3.4-3.7-3.8-3.8-5.1-3.1c-2,1.1-0.8,4.4,0,6.3c1.9,4.9,9.7,13.7,23,18c11.6,3.8,40.1,5.9,74.5-7.3
	c38.5-14.9,68.6-56.3,59.8-90.9c-9-35.2-67.4-46.8-122.7-27.2c-32.9,11.7-68.5,30-94.1,54C10.2,339,5.4,363.9,7.4,374.2
	c7.1,36.8,57.8,60.8,78.1,78.5c-1,0.5-2,1.1-2.8,1.6c-10.2,5-48.8,25.2-58.5,46.6c-10.9,24.2,1.7,41.6,10.2,44
	c26.1,7.3,52.8-5.8,67.3-27.3c14.4-21.5,12.7-49.4,6-62.1l-0.2-0.5l8-4.7c5.2-3,10.2-5.9,14.7-8.3c-2.5,6.8-4.3,14.8-5.2,26.6
	c-1.1,13.8,4.5,31.6,12,38.6c3.3,3,7.2,3.1,9.6,3.1c8.6,0,12.5-7.1,16.8-15.6c5.3-10.4,10-22.4,10-22.4s-5.9,32.6,10.2,32.6
	c5.9,0,11.7-7.6,14.4-11.5v0.1c0,0,0.2-0.2,0.5-0.8c0.6-0.9,0.9-1.5,0.9-1.5v-0.2c2.3-4.1,7.6-13.4,15.4-28.8
	c10.1-19.8,19.8-44.7,19.8-44.7s0.9,6.1,3.8,16.1c1.7,5.9,5.5,12.4,8.4,18.8c-2.3,3.3-3.8,5.2-3.8,5.2l0.1,0.1
	c-1.9,2.5-4,5.2-6.2,7.8c-8,9.5-17.5,20.4-18.8,23.5c-1.5,3.7-1.2,6.4,1.7,8.6c2.1,1.6,5.9,1.9,9.8,1.6c7.2-0.5,12.2-2.3,14.7-3.4
	c3.9-1.4,8.4-3.5,12.7-6.6c7.8-5.8,12.6-14,12.1-24.9c-0.2-6-2.2-12-4.6-17.6c0.7-1,1.4-2,2.1-3.1c12.3-18,21.9-37.9,21.9-37.9
	s0.9,6.1,3.8,16.1c1.5,5.1,4.5,10.6,7.1,16.1c-11.6,9.5-18.8,20.4-21.3,27.6c-4.6,13.3-1,19.3,5.8,20.7c3,0.6,7.4-0.8,10.7-2.2
	c4.1-1.3,9-3.6,13.5-7c7.8-5.8,15.3-13.8,14.9-24.7c-0.2-5-1.6-9.9-3.4-14.6c9.8-4.1,22.6-6.4,38.8-4.5
	c34.8,4.1,41.6,25.8,40.3,34.8c-1.3,9.1-8.6,14.1-11,15.6c-2.4,1.5-3.2,2-3,3.1c0.3,1.6,1.4,1.6,3.5,1.3c2.9-0.5,18.3-7.4,18.9-24.1
	C407.9,442.5,387.5,419,351.3,419.3L351.3,419.3z M83.2,509.7c-11.5,12.6-27.7,17.3-34.5,13.3c-7.4-4.3-4.5-22.8,9.6-36.2
	c8.6-8.1,19.8-15.6,27.1-20.2c1.6-1,4.1-2.5,7.1-4.3c0.5-0.3,0.8-0.5,0.8-0.5c0.5-0.3,1.2-0.7,1.8-1.1
	C100.3,479.7,95.3,496.5,83.2,509.7L83.2,509.7z M167.2,452.5c-4,9.8-12.4,34.8-17.5,33.4c-4.4-1.2-7-20.2-0.9-38.9
	c3.1-9.5,9.8-20.7,13.7-25.1c6.3-7,13.2-9.4,14.9-6.5C179.4,419.3,169.7,446.4,167.2,452.5z M236.5,485.7c-1.7,0.9-3.3,1.5-4,1
	c-0.5-0.3,0.7-1.5,0.7-1.5s8.7-9.3,12.1-13.6c2-2.5,4.3-5.4,6.8-8.7v0.9C252.1,475.1,241.3,482.6,236.5,485.7z M289.9,473.5
	c-1.3-0.9-1.1-3.8,3.1-12.9c1.6-3.6,5.4-9.6,11.9-15.3c0.8,2.3,1.3,4.6,1.2,6.7C306,466.1,296,471.3,289.9,473.5z"/>
</svg>
