<?xml version="1.0" encoding="utf-8"?>
<!-- Generator: Adobe Illustrator 19.1.0, SVG Export Plug-In . SVG Version: 6.00 Build 0)  -->
<svg version="1.1"
	 id="svg3614" inkscape:version="0.47 r22583" sodipodi:docname="Microsoft SQL Server Logo.svg" xmlns:sodipodi="http://sodipodi.sourceforge.net/DTD/sodipodi-0.dtd" xmlns:dc="http://purl.org/dc/elements/1.1/" xmlns:rdf="http://www.w3.org/1999/02/22-rdf-syntax-ns#" xmlns:inkscape="http://www.inkscape.org/namespaces/inkscape" xmlns:svg="http://www.w3.org/2000/svg" xmlns:cc="http://creativecommons.org/ns#"
	 xmlns="http://www.w3.org/2000/svg" xmlns:xlink="http://www.w3.org/1999/xlink" x="0px" y="0px" viewBox="190 0 500 500"
	 style="enable-background:new 190 0 500 500;" xml:space="preserve">
<style type="text/css">
	.st0{fill:#231F1F;}
	.st1{fill:url(#path3639_1_);}
	.st2{fill:url(#path3667_1_);}
	.st3{fill:url(#path2851_1_);}
</style>
<rect x="190" class="st0" width="500" height="500"/>
<defs>
	
	
		<inkscape:perspective  id="perspective3622" inkscape:persp3d-origin="372.04724 : 350.78739 : 1" inkscape:vp_x="0 : 526.18109 : 1" inkscape:vp_z="744.09448 : 526.18109 : 1" sodipodi:type="inkscape:persp3d" inkscape:vp_y="0 : 1000 : 0">
		</inkscape:perspective>
	
		<inkscape:perspective  id="perspective3576" inkscape:persp3d-origin="0.5 : 0.33333333 : 1" inkscape:vp_x="0 : 0.5 : 1" inkscape:vp_z="1 : 0.5 : 1" sodipodi:type="inkscape:persp3d" inkscape:vp_y="0 : 1000 : 0">
		</inkscape:perspective>
</defs>
<sodipodi:namedview  id="base" inkscape:pageopacity="0.0" inkscape:window-height="749" inkscape:document-units="px" inkscape:guide-bbox="true" inkscape:window-x="-4" inkscape:window-width="1024" inkscape:pageshadow="2" inkscape:window-y="-4" inkscape:window-maximized="1" inkscape:current-layer="layer1" bordercolor="#666666" pagecolor="#ffffff" borderopacity="1.0" inkscape:zoom="0.63260803" inkscape:cx="345" inkscape:cy="280" showgrid="false" showguides="true">
	</sodipodi:namedview>
<g id="layer1" transform="translate(7.9473495,-214.03648)" inkscape:groupmode="layer" inkscape:label="Ebene 1">
	<g id="g3545" transform="matrix(0.87205879,0,0,0.87205879,-814.02071,35.444919)">
		<g id="layer1-2" transform="matrix(0.65282401,0,0,0.65282401,1153.1248,109.92721)" inkscape:label="Ebene 1">
			
				<linearGradient id="path3639_1_" gradientUnits="userSpaceOnUse" x1="-1595.255" y1="923.826" x2="-1207.5752" y2="1152.8999" gradientTransform="matrix(0.3813 0 0 -0.3813 828.3735 1201.7543)">
				<stop  offset="0" style="stop-color:#909CA9"/>
				<stop  offset="1" style="stop-color:#EDEDEE"/>
			</linearGradient>
			<path id="path3639" class="st1" d="M501.7,562.6l-132.3,43.2l-115.1,50.8l-32.2,8.5c-8.2,7.8-16.8,15.7-26.1,23.7
				c-10.2,8.8-19.7,16.8-27,22.6c-8.1,6.4-20.1,18.4-26.2,26c-9.1,11.4-16.3,23.5-19.4,32.8c-5.5,16.8-2.8,33.8,7.8,49.5
				c13.6,20,40.7,40.4,72.3,54.3c16.1,7.1,43.2,16.2,63.6,21.3c33.9,8.6,99.5,17.9,135.6,19.3c7.3,0.3,17.1,0.3,17.5,0
				c0.8-0.5,6.4-11.2,12.9-24.5c22.2-45.3,38.2-87.8,46.9-124.1c5.2-22,9.3-51.3,12-86c0.7-9.7,1-42.2,0.4-53.2
				c-0.9-18-2.5-32.6-5-46.9c-0.4-2.1-0.5-4-0.3-4.1c0.4-0.3,1.6-0.7,17.9-5.4L501.7,562.6L501.7,562.6z M471.4,580.3
				c1.2,0,4.4,30.7,5.2,50.1c0.2,4.1,0.1,6.8-0.1,6.8c-0.8,0-16.9-9.5-28.4-16.7c-10-6.3-29-18.9-32-21.3c-1-0.7-0.9-0.8,7.3-3.6
				C437.4,590.9,470.4,580.3,471.4,580.3L471.4,580.3z M404,602.4c0.9,0,3.2,1.3,8.7,4.7c20.6,12.9,48.6,28.5,60.6,33.7
				c3.7,1.6,4.1,1-4.4,6.8c-18.2,12.4-40.9,24.6-68.7,36.9c-4.9,2.2-9,3.9-9.1,3.9c-0.2,0,0.4-2.5,1.2-5.5
				c6.7-24.9,10.5-50.1,10.7-70.3c0.1-10,0.1-10,1-10.3C403.9,602.4,404,602.4,404,602.4L404,602.4z M390.1,607.7
				c0.6,0.6,0.2,23-0.6,29.1c-1.8,14.6-4.6,28.2-9.2,43.5c-1.1,3.7-2.1,6.8-2.3,7c-0.4,0.5-14.1-12.9-18.6-18.1
				c-7.8-9-13.9-18-18.4-26.8c-2.3-4.5-5.9-13.3-5.6-13.6C337.1,627.7,389.8,607.4,390.1,607.7L390.1,607.7z M324.8,633.5
				c0.1,0,0.2,0,0.3,0.1c0.2,0.2,0.9,1.8,1.5,3.6c3.2,8.7,10.4,21.5,16.6,29.7c6.8,9,15.7,18.6,23.1,24.9c2.4,2,4.6,3.9,4.9,4.2
				c0.6,0.6,0.8,0.5-15.5,6.7c-18.9,7.2-39.5,14.4-63.1,22c-9,2.9-16.6,5.4-16.9,5.5c-0.9,0.3-0.6-0.2,2-4.3
				c11.7-18.3,29.5-54.2,39.5-79.6c1.7-4.4,3.4-8.8,3.7-9.8c0.4-1.4,0.9-1.9,2.2-2.6C323.7,633.6,324.4,633.5,324.8,633.5
				L324.8,633.5z M304.7,641.8c0.3,0.2-4.8,10.9-9.8,20.7c-9.7,18.9-20.3,37.5-34.5,60.1c-2.4,3.9-4.7,7.5-5,7.9
				c-0.5,0.7-0.7,0.5-2.3-2.6c-3.4-6.7-6.2-15.3-7.7-23.2c-1.5-7.8-1.2-21.4,0.5-29.8c1.3-6.2,1.2-6.1,4.2-7.6
				C262.9,660.8,304.3,641.4,304.7,641.8z M477.3,648.8v4.2c0,22.3-2.4,52.9-5.9,75.2c-0.6,3.9-1.1,7.1-1.2,7.2c0,0-2.9-0.8-6.3-1.8
				c-15-4.7-31.3-11.6-46-19.7c-9.7-5.3-23.8-14-23.4-14.4c0.1-0.1,4.3-2.3,9.2-4.9c19.6-10.2,38.4-21.2,54.7-32.1
				c6.1-4.1,15.3-10.7,17.3-12.5L477.3,648.8z M229.2,678.4c0.4,0,0.3,0.8-0.3,4.4c-0.4,2.6-0.9,7.4-1.1,10.7
				c-0.8,14.6,1.6,25.4,8.8,40.2c2,4.1,3.6,7.5,3.5,7.6c-0.7,0.6-66.9,20-87.7,25.7c-6.2,1.7-11.6,3.2-12,3.3
				c-0.7,0.2-0.8,0.1-0.5-1.6c2.3-14.7,13.5-33.9,29.1-50.1c10.4-10.8,18.7-17.1,32.9-25.2c10.2-5.8,25.9-14.5,27.1-14.9
				C229.1,678.4,229.1,678.4,229.2,678.4L229.2,678.4z M385.2,706.3c0.1-0.1,2.5,1.2,5.4,2.9c21.4,12.4,51.2,23.9,76.6,29.8l2.3,0.5
				l-3.2,1.8c-13.3,7.4-57,25.6-101.7,42.3c-6.5,2.4-12.9,4.8-14.1,5.3c-1.2,0.5-2.3,0.8-2.3,0.7s1.8-3.6,4.1-7.9
				c12.5-23.4,25.1-51.9,31.5-71.7C384.6,708.1,385.2,706.4,385.2,706.3L385.2,706.3z M369.3,711.5c0.1,0.1-0.7,2.2-1.7,4.6
				c-8.7,21.1-20.1,44.1-34.7,69.9c-3.7,6.6-6.8,11.9-6.9,11.9c-0.1,0-3.1-1.8-6.7-4c-21.2-13-40-29-52.3-44.5l-1.8-2.2l9.1-2.5
				c32.6-8.9,60.3-18.5,87.8-30.3C366,712.8,369.3,711.4,369.3,711.5L369.3,711.5z M468.2,746C468.2,746,468.2,746,468.2,746
				c0.1,2.3-5,22.9-9.2,37.8c-3.5,12.5-6.5,22.3-12,39.6c-2.4,7.6-4.5,13.9-4.6,13.9c-0.1,0-0.7-0.1-1.3-0.3
				c-29.7-5.4-56.3-12.9-81.3-22.9c-7-2.8-17-7.3-17.6-7.8c-0.2-0.2,5.8-3,13.4-6.3c45.5-19.9,92.7-42.5,108.9-52.2
				C466.4,746.6,467.8,745.9,468.2,746L468.2,746z M240,753.8c0.2,0.2-12.5,18.5-30.3,43.4c-6.2,8.7-13.4,18.9-16.1,22.7
				c-2.7,3.8-6.8,9.8-9.1,13.4l-4.2,6.5l-4.5-3.8c-5.3-4.4-14.5-13.8-18.6-19c-8.6-10.7-14.4-22-16.7-32.3c-1.1-4.8-1.1-7.2-0.1-7.5
				c1.5-0.4,28.2-6.7,53.2-12.5c13.9-3.2,30-7,35.8-8.4C235.2,754.8,240,753.8,240,753.8L240,753.8z M252.9,758.7l3.2,3.6
				c14.4,16.1,29.1,28,46.9,38.4c3.2,1.8,5.6,3.4,5.4,3.5c-0.7,0.5-61.8,22.2-90.1,32c-15.9,5.6-29,10.1-29.1,10.1
				c-0.1,0-1-0.6-2-1.3l-1.8-1.3l2.9-4.2c9.4-13.6,21.2-28.5,46.9-59.5L252.9,758.7L252.9,758.7z M332.7,815.8
				c0.1-0.1,4.5,1.5,9.9,3.5c13,4.9,23.3,8,37.1,11.5c17,4.3,41.6,8.5,56.1,9.7c2.2,0.2,3.4,0.4,3,0.7c-0.7,0.4-15.4,5.3-26.2,8.7
				c-17.2,5.4-69.7,20.9-112.5,33.2c-7.9,2.3-14.7,4.2-15.1,4.3c-1,0.2-4.3-0.7-4.3-1.1c0-0.2,2.4-3.3,5.3-6.7
				c14.4-17.2,28.7-36.4,40.6-54.6C329.9,820,332.6,815.8,332.7,815.8L332.7,815.8z M315,816.3c0.1,0.1-7,11.5-19.4,31.1
				c-5.3,8.3-11.2,17.7-13.3,21c-2,3.2-5,8.2-6.7,11l-2.9,5.1l-1.5-0.4c-3.6-1-28.9-9.9-35.6-12.6c-8.3-3.3-16.9-7.3-23.3-10.7
				c-8-4.3-18-10.7-17.2-10.9c0.2-0.1,13.9-3.8,30.4-8.3c43.8-11.9,68.1-18.8,84-23.8C312.5,816.9,314.9,816.2,315,816.3L315,816.3z
				 M439.5,845.5c0.1,0,0.1,0,0.1,0c0.4,1-15.8,46-21.7,60.2c-1.3,3.2-1.8,4-2.5,3.9c-1.7-0.1-25.2-3.4-39.5-5.5
				c-24.9-3.8-66.7-11.1-77.2-13.5l-2.4-0.5l14.9-3.4c32-7.2,47.4-11.1,63-15.9c19.7-6,39.2-13.5,58.9-22.7
				C436.2,846.7,438.9,845.6,439.5,845.5L439.5,845.5z"/>
			
				<linearGradient id="path3667_1_" gradientUnits="userSpaceOnUse" x1="-1592.9476" y1="2321.2632" x2="-1281.0101" y2="2321.2632" gradientTransform="matrix(0.3813 0 0 -0.3813 828.3735 1201.7543)">
				<stop  offset="0" style="stop-color:#939FAB"/>
				<stop  offset="1" style="stop-color:#DCDEE1"/>
			</linearGradient>
			<path id="path3667" class="st2" d="M365.3,254.1c-2.2-0.3-37.7,12.5-60.6,21.8c-30.9,12.6-54.9,24.6-69.7,35
				c-5.5,3.9-12.4,10.8-13.5,13.5c-0.4,1-0.6,2.2-0.6,3.4l13.4,12.7l31.9,10.2l75.9,13.6l86.8,14.9l0.9-7.5c-0.3,0-0.5-0.1-0.8-0.1
				l-11.4-1.8l-2.3-4.1c-11.8-20.8-24.8-46.6-32.4-64c-5.9-13.5-11.5-29.1-14.6-40.3C366.5,254.7,366.3,254.3,365.3,254.1
				L365.3,254.1z M363.6,259.3c0.1,0,0.1,0,0.1,0c0.1,0.1,0.5,2.9,0.9,6.2c1.7,14,4.8,27.5,9.7,42.1c3.7,11,3.7,10.4-0.6,9.1
				c-10.2-2.8-55.9-10.7-89-15.3c-5.3-0.7-9.8-1.4-9.8-1.5c-0.4-0.4,23.9-13.1,34.6-18.1C323.3,275.4,360.9,259.8,363.6,259.3z
				 M267.2,304.1l3.9,1.3c21.2,7.2,74.5,17.4,103.9,19.8c3.3,0.3,6.1,0.6,6.2,0.6c0.1,0.1-2.7,1.6-6.3,3.3
				c-14.2,7.1-29.8,15.8-40.6,22.5c-3.2,2-6.1,3.6-6.5,3.6c-0.4,0-2.5-0.4-4.7-0.7l-4-0.6l-10-9.8c-17.6-17.1-31.4-30.3-36.7-35.3
				L267.2,304.1z M263.3,307.2l14.1,17.6c7.7,9.7,15.5,19.2,17.2,21.3c1.7,2.1,3.1,3.8,3,3.9c-0.4,0.3-20.4-3.6-31-6
				c-10.9-2.5-15.4-3.7-22.1-5.8l-5.5-1.8l0-1.4c0.1-6.7,8.6-16.7,23-26.9L263.3,307.2L263.3,307.2z M383.1,331.1
				c0.4,0,0.9,0.9,2.1,3.6c3.4,7.5,14,27.7,16.6,31.6c0.8,1.3,2.2,1.4-11.9-0.9C356,360,345,358.2,345,358c0-0.1,1-0.8,2.3-1.5
				c10.5-5.8,21.1-13.2,30.5-21.1c2.3-1.9,4.4-3.7,4.8-4C382.8,331.2,382.9,331.1,383.1,331.1L383.1,331.1z"/>
			
				<radialGradient id="path2851_1_" cx="-1465.5117" cy="1650.0193" r="414.1563" gradientTransform="matrix(-0.3664 -5.540111e-002 -0.1106 0.7317 63.7195 -794.6662)" gradientUnits="userSpaceOnUse">
				<stop  offset="0" style="stop-color:#EE352C"/>
				<stop  offset="1" style="stop-color:#A91D22"/>
			</radialGradient>
			
				<path id="path2851" sodipodi:nodetypes="cscsssccsscccsssscscccssssssssccssssssssssccsscccsssccsssssssccsssssssccscccssssccsssssssccssssssssssccsssssssssccsssssssccsscccssscccscccssscccsssssssccsssssssccscccssssssccssssssc" class="st3" d="
				M222.1,323.1c0,0-2.2,3.5-0.1,8.7c1.3,3.2,5.1,7.1,9.4,11.1c0,0,44.5,43.4,49.9,49.6c24.6,28.4,35.3,56.4,36.3,95
				c0.6,24.8-4.1,46.6-15.8,71.9C281,604.9,237.2,655,169.4,710.6l9.9-3.3c6.4-4.8,15.1-9.9,35.5-21.1
				c47.1-25.8,100.1-49.5,165.1-73.9c93.6-35.2,247.5-76.4,335.1-89.8l9.1-1.4l-1.4-2.2c-8-12.4-13.5-20.1-20.1-28.3
				c-19.2-23.8-42.5-43.1-71-59.1c-39.2-21.9-89.9-39-154.1-51.7c-12.1-2.4-38.7-7-60.3-10.3c-45.8-7.1-75.4-12-108-17.6
				c-11.7-2-29.2-5-40.8-7.5c-6-1.3-17.5-4-26.5-7.1C234.7,334.4,224.4,331.6,222.1,323.1L222.1,323.1z M247.9,348.1
				c0.1-0.1,1.7,0.5,3.8,1.2c3.8,1.3,8.7,2.8,14.5,4.4c4,1.1,8.5,2.3,13.2,3.5c6,1.5,11,2.9,11.1,2.9c0.7,0.7,10.8,33,14.2,45.4
				c1.3,4.7,2.3,8.7,2.2,8.7c-0.1,0.1-1.2-1.6-2.5-3.9c-11.7-20.6-30.2-41.5-51.6-58.3C250.1,350,247.9,348.2,247.9,348.1z
				 M297.2,361.7c0.5,0,2.7,0.3,5.4,0.9c17,3.8,47.5,9.6,67,12.9c3.3,0.5,5.9,1.1,5.9,1.3c0,0.2-1.2,0.9-2.7,1.7
				c-3.3,1.7-16.6,9.6-21,12.6c-11.1,7.4-21.1,15.4-28.3,22.6c-2.9,2.9-5.4,5.3-5.4,5.3s-0.6-1.7-1.1-3.8
				c-3.6-13.9-11.1-34.5-17.9-49c-1.1-2.3-2-4.4-2-4.6C297,361.7,297.1,361.7,297.2,361.7L297.2,361.7z M383.8,378.2
				c0.6,0.2,1.6,3.6,3.6,11.1c3.7,14.5,5.4,30.7,4.8,45.8c-0.2,4.2-0.4,8.1-0.6,8.6l-0.3,1l-5.2-1.7c-10.7-3.4-28.1-8.5-43-12.7
				c-8.5-2.3-15.4-4.4-15.4-4.6c0-0.6,12.4-13,17.7-17.7C355.5,399.1,382.8,377.9,383.8,378.2L383.8,378.2z M390.7,379.2
				c0.3-0.3,41.4,6.8,60.1,10.4c13.9,2.7,34.1,6.9,35.3,7.4c0.6,0.2-1.5,1.4-8.2,4.4c-26.4,11.9-46,22.6-65.5,35.6
				c-5.1,3.4-9.4,6.2-9.5,6.2c-0.1,0-0.2-2.9-0.2-6.4c0-19-3.8-38.2-10.8-54.4C391.2,380.7,390.6,379.2,390.7,379.2L390.7,379.2z
				 M496.9,400.2c0.3,0.3-1,8.4-2.2,13.2c-3.6,14.9-13.3,37-25.2,57.8c-2.1,3.7-4,6.7-4.2,6.8c-0.2,0.1-2.9-1.4-6-3.2
				c-11.6-6.8-24.8-13.2-39.2-19.2c-4-1.7-7.5-3.1-7.6-3.3c-0.7-0.6,31.5-21.9,48.5-32.1C474.6,412,496.5,399.8,496.9,400.2z
				 M504.5,401.4c0.9,0,19.1,5,28.6,7.8c23.5,7,50.5,16.9,68.1,24.9l7.3,3.3l-5.1,1.2c-43,9.9-79.8,21.3-115.3,35.7
				c-2.9,1.2-5.5,2.2-5.7,2.2c-0.2,0,0.8-2.3,2.1-5.1c10.7-22.7,17.6-46.4,19.3-66.6C503.9,402.9,504.3,401.4,504.5,401.4
				L504.5,401.4z M323.4,443c0.3-0.3,14.2,3,21.7,5.1c11.4,3.2,35.6,11.3,35.6,11.9c0,0.1-2.7,2.4-5.9,5.2
				c-13.1,10.9-25.7,22.4-40.8,37c-4.5,4.3-8.3,7.8-8.5,7.8c-0.2,0-0.3-0.6-0.2-1.4c2.3-16.8,1.8-38.4-1.4-60.3
				C323.5,445.5,323.3,443.1,323.4,443L323.4,443z M615.4,443.3c0.2,0.2-6.4,10.6-10.6,16.5c-6,8.6-14.8,20-34.7,45
				c-10.5,13.2-22.3,28.1-26.2,33.1c-4,5-7.3,9.2-7.4,9.2c-0.1,0-1.4-1.8-2.8-4c-11.2-16.8-24.6-31.5-40.5-44.7
				c-3-2.5-6.3-5.2-7.4-6c-1.1-0.8-2-1.6-2-1.7c0-0.3,17-7.6,29.9-12.8c22.6-9.2,53.4-20.2,76.5-27.3
				C602.3,446.8,615.3,443.1,615.4,443.3L615.4,443.3z M623.1,445.3c0.4-0.1,2.8,1.1,5.7,2.8c24.3,13.9,48.1,31.8,66.9,50.2
				c5.3,5.2,18.4,18.8,18.2,18.9c0,0-4.6,0.4-10,0.8c-42.1,3.2-96,12.1-147.8,24.6c-3.5,0.8-6.6,1.5-6.8,1.5c-0.2,0,3.7-3.9,8.6-8.6
				c30.4-29.3,44.3-47.8,60.7-80.8C620.9,449.8,623,445.6,623.1,445.3C623.1,445.3,623.1,445.3,623.1,445.3L623.1,445.3z
				 M400.5,468.1c1.4,0.3,14.4,6.4,24.2,11.3c9,4.5,22.5,11.7,23.2,12.3c0.1,0.1-4.7,2.6-10.6,5.5c-18.8,9.4-34.9,18.3-51.7,28.5
				c-4.8,2.9-8.8,5.3-8.9,5.3c-0.4,0-0.3-0.4,2.4-5.3c9-16.4,16.2-36,20.3-55.1C399.7,469.1,400.2,468,400.5,468.1L400.5,468.1z
				 M387.4,470.4c0.3,0.3-3.1,12.6-5.2,19.3c-4.1,12.7-11,28.6-17.7,40.6c-1.6,2.8-4,6.9-5.3,9.2l-2.5,4l-5.6-5.4
				c-6.5-6.3-11.8-10.2-18.6-13.7c-2.7-1.4-4.8-2.6-4.8-2.8c0-0.8,17.1-16.3,30.2-27.5C367.3,486.1,387.2,470.2,387.4,470.4z
				 M466.9,503.1l4.9,3.2c11.2,7.3,24.4,17,34.5,25.5c5.7,4.7,16.7,14.6,18.9,17l1.2,1.3l-8.1,2.3c-45.8,12.7-81.2,24-122.5,39.2
				c-4.6,1.7-8.5,3.1-8.8,3.1c-0.6,0-1.1,0.5,9.2-9c26.4-24.3,49.8-51.1,67.2-77.2L466.9,503.1z M446,508.4
				c0.2,0.2-13.5,19.5-21.7,30.4c-9.8,13-27.2,34.8-39.2,49c-5,5.9-9.3,10.8-9.5,10.9c-0.3,0.1-0.4-1.4-0.4-3.7
				c0-12.1-3.1-25-8.5-36c-2.3-4.6-2.7-5.7-2.2-6.2c1.9-1.7,31-18.3,49.4-28.2C426.4,518,445.8,508.1,446,508.4L446,508.4z
				 M319.7,539.3c0.3,0,2.6,1.2,5.2,2.6c6.4,3.5,12.1,7.4,17.2,11.6c0.2,0.2-2.4,2.3-5.8,4.8c-9.5,6.8-23.9,17.7-32.3,24.4
				c-8.8,7-9.1,7.2-8.1,5.7c6.6-10.1,9.9-15.8,13.4-23.1c3.1-6.5,6.2-14.2,8.4-20.9C318.5,541.6,319.4,539.3,319.7,539.3
				L319.7,539.3z M353.3,565.7c0.5-0.1,1.1,0.8,3.8,4.8c5.7,8.5,10.1,19.9,11.2,29.1l0.2,2l-13.7,5.3c-24.5,9.5-47.1,18.9-62.4,25.9
				c-4.3,2-11.8,5.6-16.7,8c-4.9,2.5-8.9,4.4-8.9,4.3c0-0.1,3.1-2.4,6.9-5.2c29.9-21.7,55.8-45.5,75.2-69.3c2.1-2.5,4-4.8,4.2-4.9
				C353.2,565.8,353.3,565.7,353.3,565.7L353.3,565.7z M337.8,569.6c0.4,0.4-11,13.3-18.8,21.2c-19.3,19.7-38.4,35.1-62.1,50.1
				c-3,1.9-5.7,3.6-6,3.8c-0.7,0.4,0.2-0.6,10.6-11.9c6.6-7.1,11.6-13.1,17.3-20.5c3.8-4.9,4.5-5.6,10-9.5
				C303.6,592.1,337.4,569.2,337.8,569.6L337.8,569.6z"/>
		</g>
	</g>
</g>
</svg>
