<?xml version="1.0" encoding="utf-8"?>
<!-- Generator: Adobe Illustrator 19.2.0, SVG Export Plug-In . SVG Version: 6.00 Build 0)  -->
<svg version="1.1" id="Layer_1" xmlns="http://www.w3.org/2000/svg" xmlns:xlink="http://www.w3.org/1999/xlink" x="0px" y="0px"
	 viewBox="0 0 500 500" style="enable-background:new 0 0 500 500;" xml:space="preserve">
<style type="text/css">
	.st0{fill:#007ACC;}
	.st1{enable-background:new    ;}
	.st2{fill:#FFFFFF;}
</style>
<rect class="st0" width="500" height="500"/>
<g class="st1">
	<path class="st2" d="M250.5,181H200v156.5h-20.5V181H129v-18.6h121.5V181z"/>
	<path class="st2" d="M264.9,330.4v-24.2c2.8,2.4,6.1,4.6,9.9,6.6c3.9,2,7.9,3.6,12.2,4.9c4.3,1.3,8.6,2.4,12.9,3.1
		c4.3,0.7,8.3,1.1,12,1.1c12.6,0,22-2.3,28.3-7s9.3-11.4,9.3-20.2c0-4.7-1-8.8-3.1-12.3c-2.1-3.5-4.9-6.7-8.6-9.6
		c-3.7-2.9-8-5.7-13-8.3c-5-2.6-10.4-5.4-16.2-8.4c-6.1-3.1-11.8-6.2-17.1-9.4c-5.3-3.2-9.9-6.7-13.8-10.5c-3.9-3.8-7-8.2-9.2-13
		c-2.2-4.8-3.4-10.5-3.4-17c0-8,1.7-14.9,5.2-20.8c3.5-5.9,8.1-10.8,13.8-14.6c5.7-3.8,12.2-6.7,19.5-8.5c7.3-1.9,14.7-2.8,22.3-2.8
		c17.3,0,29.8,2.1,37.7,6.2v23.1c-10.3-7.2-23.6-10.7-39.8-10.7c-4.5,0-9,0.5-13.4,1.4c-4.5,0.9-8.5,2.5-12,4.6
		c-3.5,2.1-6.3,4.8-8.5,8.2c-2.2,3.3-3.3,7.4-3.3,12.2c0,4.5,0.8,8.3,2.5,11.6c1.7,3.3,4.1,6.2,7.4,8.9c3.3,2.7,7.2,5.3,11.9,7.8
		c4.7,2.5,10.1,5.3,16.2,8.3c6.3,3.1,12.2,6.3,17.8,9.8s10.5,7.2,14.8,11.4c4.2,4.2,7.6,8.7,10.1,13.8c2.5,5,3.7,10.8,3.7,17.3
		c0,8.6-1.7,15.9-5.1,21.9c-3.4,6-7.9,10.8-13.7,14.6c-5.7,3.7-12.3,6.5-19.8,8.1c-7.5,1.7-15.4,2.5-23.7,2.5
		c-2.8,0-6.2-0.2-10.3-0.7c-4.1-0.4-8.2-1.1-12.5-2c-4.2-0.9-8.2-1.9-12-3.2C270.2,333.4,267.2,332,264.9,330.4z"/>
</g>
</svg>
